<svg xmlns="http://www.w3.org/2000/svg" xmlns:xlink="http://www.w3.org/1999/xlink" viewBox="0 0 314 443.6"><defs><style>.cls-1{fill:#f0f4f7;}.cls-2{fill:#6f7376;}.cls-3{fill:#f0f2f5;}.cls-4{fill:#f0f2f6;}.cls-5{fill:#f0f5f8;}.cls-6{fill:url(#radial-gradient);}.cls-7{fill:url(#radial-gradient-2);}.cls-8{fill:#3a3f58;}.cls-9{fill:url(#radial-gradient-3);}.cls-10{fill:#b13a48;}</style><radialGradient id="radial-gradient" cx="257.43" cy="598.75" r="307.18" gradientTransform="translate(17.64 203.55) scale(0.52 0.35)" gradientUnits="userSpaceOnUse"><stop offset="0" stop-color="#fad085"/><stop offset="0.28" stop-color="#f8c676"/><stop offset="0.83" stop-color="#f4ab4f"/><stop offset="1" stop-color="#f3a241"/></radialGradient><radialGradient id="radial-gradient-2" cx="157" cy="173.6" r="307.18" gradientTransform="translate(0 84.72) scale(1 0.51)" xlink:href="#radial-gradient"/><radialGradient id="radial-gradient-3" cx="161.6" cy="115.57" r="17.95" gradientUnits="userSpaceOnUse"><stop offset="0" stop-color="#e13643"/><stop offset="1" stop-color="#e13642"/></radialGradient></defs><g id="Laag_2" data-name="Laag 2"><g id="Ui_-_lose_haring" data-name="Ui - lose haring"><path class="cls-1" d="M57.21,77.26c-1.85-6.65-1.08-14.13,1.16-21.84A44.86,44.86,0,0,1,65.79,40a34.54,34.54,0,0,1,8.49-8.33A10.74,10.74,0,0,1,83,30.05c8,1.94,14.42,8.3,19.34,15s6.46,8.13,8.9,16c.57,1.86,1.95,8.24,1.88,10.21-.14,3.72-2.23,5.65-5.22,7.86a23.9,23.9,0,0,1-10.15,4.53C89.66,85,81.84,86.16,73.7,85c-1.9-.28-5.39-.71-6.53-2.2-.6-.8.74-1.53,1.23-2.41a9,9,0,0,0,.41-1.48c.15-.44-1.14-.49-1.5-.79s-2.9.26-3.36.38c-2.31.59-2.42.29-4.8.33A7.16,7.16,0,0,1,57.21,77.26Z"/><path class="cls-2" d="M81.34,52.89a30.11,30.11,0,0,1,0-3.68,8.61,8.61,0,0,1,.5-2.67c.34-.81.94-1.45,1.61-1.45A2,2,0,0,1,85,46.41a7.8,7.8,0,0,1,.56,2.5,22.76,22.76,0,0,1,0,4.52v.16"/><path class="cls-2" d="M82.94,50.55a30.11,30.11,0,0,1,3.68,0,8.61,8.61,0,0,1,2.67.5c.81.33,1.45.94,1.45,1.61a2,2,0,0,1-1.32,1.55,7.8,7.8,0,0,1-2.5.56,22.76,22.76,0,0,1-4.52,0h-.16"/><path class="cls-2" d="M83.29,54.85a30,30,0,0,1-3.67,0,8.67,8.67,0,0,1-2.68-.5c-.8-.34-1.45-.94-1.45-1.61a2,2,0,0,1,1.32-1.55,7.87,7.87,0,0,1,2.51-.57,23.43,23.43,0,0,1,4.51,0H84"/><path class="cls-2" d="M85.64,53.3a21.8,21.8,0,0,1,0,3.13,6.38,6.38,0,0,1-.51,2.28A2,2,0,0,1,83.52,60,1.91,1.91,0,0,1,82,58.82a5.84,5.84,0,0,1-.56-2.13,17.09,17.09,0,0,1,0-3.85V52.7"/><path class="cls-1" d="M123.7,54.36c-1,.5-3.59-.15-4.46-.77a16.92,16.92,0,0,1-5.3-6c-1.36-2.25-2.12-6-1.23-8.46a8.68,8.68,0,0,0,.5-1.46,15.74,15.74,0,0,0-.08-1.68A107.86,107.86,0,0,1,117.5,10.7c.36-1.23,1.49-3.16,2.76-3s1.81,1.52,1.81,2.69c0,4.14-.3,9.61.68,15.15,1.4,8,2,8.55,5,16.44a123.38,123.38,0,0,0,7.47,16.37c.32.62,3,4.14,3,4.84s.1,1.44-.57,1.65a4.6,4.6,0,0,1-2.64-.46A39,39,0,0,1,123.7,54.36Z"/><path class="cls-3" d="M153.38,46.05a4.82,4.82,0,0,1-3.68-1.43c-2.06-2.51-2.89-4.27-3.52-8.54-.39-2.59-1-5.18.47-7.34a10.91,10.91,0,0,0,.86-1.53,12.71,12.71,0,0,0,.35-1.65c3-9.85,5.48-14.26,10-22.22.64-1.12,2.88-3.76,4.07-3.28S163.33,2,163,3.12a96.58,96.58,0,0,0-2.46,15.32c-.68,8.07-.75,8.27.12,16.67.82,7.8,1.61,9.69,2.79,17,.11.69,1.64,5.58,1.44,6.25s0,1.37-.73,1.4a4.61,4.61,0,0,1-2.43-1.12A39.11,39.11,0,0,1,153.38,46.05Z"/><path class="cls-4" d="M182.94,49.72a4.83,4.83,0,0,1-3.22-2.29c-1.4-2.92-1.78-4.83-1.36-9.13.25-2.61.26-5.27,2.23-7A13.23,13.23,0,0,0,181.8,30a14.14,14.14,0,0,0,.73-1.52c5.33-8.83,8.77-12.52,15.12-19.14.89-.93,3.7-2.95,4.74-2.2s.85,2.2.29,3.23a96.55,96.55,0,0,0-6.1,14.27c-2.6,7.66-2.72,7.84-3.9,16.2-1.1,7.78-.79,9.79-1.4,17.15-.06.7.24,5.81-.11,6.42s-.36,1.32-1,1.18A4.52,4.52,0,0,1,188,63.94,38.85,38.85,0,0,1,182.94,49.72Z"/><path class="cls-1" d="M208.37,52.55a5.3,5.3,0,0,1-2-3.27c-.29-3,0-4.76,1.63-8.13,1-2,1.83-4.23,4-4.81a8.45,8.45,0,0,0,1.4-.54c.44-.21.69-.66,1.08-.93,7.2-5,11.22-6.54,18.6-9.26,1-.39,4-.84,4.67.23a2.21,2.21,0,0,1-.73,2.79,70.67,70.67,0,0,0-9.49,9.14c-4.54,5.2-4.7,5.29-8.23,11.68-3.29,5.94-3.65,7.74-6.41,13.55-.26.55-1.56,4.9-2,5.24s-.71.94-1.24.53a5.08,5.08,0,0,1-1.26-2.28A36.92,36.92,0,0,1,208.37,52.55Z"/><path class="cls-5" d="M232.93,55.23c-1.72,2-2.8,1.38-2.8,4a14.25,14.25,0,0,0,1,4.69c1,3.87,1.17,8.53,1.94,12.46a22.08,22.08,0,0,0,2.79,7.85c1.51,2.32,3.83,3.79,6.51,3.11a12.61,12.61,0,0,0,4.1-2.31c2.55-2.28,4.36-5.78,3.53-9.1-.36-1.43-1.18-3-.5-4.29a3.36,3.36,0,0,1,2.83-1.49,31,31,0,0,0,3.34-.11c2.76-.51,4.53-3.17,5.74-5.7a21.71,21.71,0,0,0,2.27-7.47,7.33,7.33,0,0,0-.39-3.42,6.37,6.37,0,0,0-3.69-3.34c-1.59-.62-7.36.17-9,.49C235.31,53.5,236.17,51.42,232.93,55.23Z"/></g><g id="Ui_-_you_lost_copy" data-name="Ui - you lost copy"><rect class="cls-6" x="70.04" y="378.6" width="163.83" height="65" rx="16"/></g><g id="Ui_-_you_lost" data-name="Ui - you lost"><rect class="cls-7" y="125.6" width="314" height="96" rx="16"/></g><g id="Layer_3" data-name="Layer 3"><path class="cls-8" d="M156.61,129.74a22.6,22.6,0,0,0-2.47,9.74,1.91,1.91,0,0,0,.76,1.75,1.35,1.35,0,0,0,1.41-.27,3.82,3.82,0,0,0,.84-1.25,39.87,39.87,0,0,0,3.28-10"/><path class="cls-9" d="M152.15,111.36c-3-.39-5-.17-8.31,3.11a5.1,5.1,0,0,0-1.23,2.58,6.6,6.6,0,0,0,.38,3.59c1.52,4.12,5.56,6.74,9.61,8.42a42.39,42.39,0,0,0,18.79,3.16c3.76-.23,8.2-1.59,9.15-5.24a6.48,6.48,0,0,0-2-6,13.08,13.08,0,0,0-5.9-3c0-1.36,0-2.73.05-4.24a11.53,11.53,0,0,0,4-.35,4.24,4.24,0,0,0,2.65-2.79c1.08-3.52-2-5.74-3.62-6.91-3.72-2.73-8-3.9-14.76-4.82a10.45,10.45,0,0,0-4.9.76c-1,.61-3.37,2-2.79,5a5.5,5.5,0,0,0,1.2,2,7.89,7.89,0,0,0,3.55,2.16c-.15,1-.88,2.36-1,3.35A34.1,34.1,0,0,0,152.15,111.36Z"/><path class="cls-10" d="M172.68,113.75a59.63,59.63,0,0,1-14.65-5,15.17,15.17,0,0,0-.63,1.87l-.12.49s-.37,1.07-.28,1.15c4.42,4.06,9.56,5.69,15.63,5.69C172.55,116.53,172.68,115.14,172.68,113.75Z"/></g></g></svg>