<svg xmlns="http://www.w3.org/2000/svg" viewBox="0 0 132.48 132.48"><defs><style>.cls-1,.cls-2{fill:none;stroke-miterlimit:10;stroke-width:4px;}.cls-1{stroke:#f29926;}.cls-2{stroke:#f0992d;}</style></defs><g id="Laag_2" data-name="Laag 2"><g id="Layer_33" data-name="Layer 33"><circle class="cls-1" cx="66.24" cy="66.24" r="64.24"/><path class="cls-1" d="M56.05,12.14a73,73,0,0,0-27,14,52.92,52.92,0,0,0-16.83,25A75.44,75.44,0,0,0,9.69,69.23"/><path class="cls-1" d="M16.81,92.47c4.49,9.24,12.19,16.69,21,22,10.46,6.28,22.81,9.72,35,8.6s24-7,31.37-16.75"/><path class="cls-1" d="M72.08,9.75c14.68.14,28.81,8,37.71,19.7s12.72,26.83,11.79,41.48a55.19,55.19,0,0,1-4.73,19.72"/><path class="cls-1" d="M63.08,66.77q.9,8.48,1.2,17"/><path class="cls-1" d="M59.54,82.47a5.5,5.5,0,0,0,4,2.41,9.56,9.56,0,0,0,4.71-.73,13.54,13.54,0,0,0,7-6,10.75,10.75,0,0,0,.65-9.06,9,9,0,0,0-7-5.53,11.21,11.21,0,0,0-3.95.33,11.38,11.38,0,0,0-6.56,4"/><path class="cls-1" d="M51.8,95q18.4.23,36.8-.44"/><path class="cls-1" d="M58.19,100.25c1.85.61,3.86.12,5.78-.2a35,35,0,0,1,8.5-.38"/><path class="cls-2" d="M71.12,53.29a237.83,237.83,0,0,1-25.75.16,14.73,14.73,0,0,1-5.44-1,13.3,13.3,0,0,1-3.8-2.93,50.32,50.32,0,0,1-3.41-3.88,5.2,5.2,0,0,1-1.09-1.94,5.05,5.05,0,0,1,.45-2.9A31.81,31.81,0,0,1,42,27.34,12.15,12.15,0,0,1,46.4,25a13.35,13.35,0,0,1,3.84-.25c5.06.19,10.33.76,15-1.2,2-.85,3.83-2.15,5.8-3.13,3.36-1.67,7.42-2.34,10.9-.9a15.13,15.13,0,0,1,4,2.61,54.45,54.45,0,0,1,7.7,8.42c2.28,3,4.54,6.55,3.73,10.21-.55,2.44-2.37,4.36-4.11,6.16-2.21,2.25-4.52,4.59-7.5,5.63C80.92,54.18,75.63,53,71.12,53.29Z"/><path class="cls-2" d="M34.4,49.47c-2.47,4.82-7.49,7.74-11,11.84a8.64,8.64,0,0,0-1.64,2.51,11.44,11.44,0,0,0-.23,5.34,102.24,102.24,0,0,1,.59,12.74,8.71,8.71,0,0,0,.42,3.56,8.07,8.07,0,0,0,2.1,2.63,94.69,94.69,0,0,0,10.3,8.33,3,3,0,0,0,2.09.76,3,3,0,0,0,1.3-.71l5-4a46.4,46.4,0,0,0,7.82-7.25,7.18,7.18,0,0,0,1.6-3,8.13,8.13,0,0,0-.22-3.1c-.42-2.07-.91-4.13-1.17-6.23a29.35,29.35,0,0,1,1.88-14.45c.58-1.46,1.28-3.14.54-4.53"/><path class="cls-2" d="M84.66,53.69l-.86,15a22.87,22.87,0,0,0,0,4.3c.46,3.43,2.46,6.43,4.49,9.24,1.59,2.2,3.24,4.36,4.93,6.49a7.85,7.85,0,0,0,2.23,2.11,7.09,7.09,0,0,0,3,.64c1.29.08,2.57.1,3.85.06a5.15,5.15,0,0,0,2-.31,5.33,5.33,0,0,0,1.88-1.72,67.11,67.11,0,0,0,4.69-6.87,8.14,8.14,0,0,0,1.32-3.28c.22-2.23-1.3-4.33-1.26-6.58a25.73,25.73,0,0,1,.6-3.32,12.67,12.67,0,0,0-.59-5.31,48.93,48.93,0,0,0-8.33-15.63,4.38,4.38,0,0,0-.79-.87,4.64,4.64,0,0,0-1.26-.57l-4.29-1.41"/><circle class="cls-2" cx="62.94" cy="13.73" r="1.59"/><circle class="cls-2" cx="67.74" cy="111.37" r="1.5"/><circle class="cls-2" cx="102.35" cy="99.59" r="0.95"/><circle class="cls-2" cx="38.73" cy="105.07" r="1.06"/><circle class="cls-2" cx="109.19" cy="41.94" r="1.25"/><circle class="cls-2" cx="20.43" cy="44.8" r="0.86"/></g></g></svg>