<svg xmlns="http://www.w3.org/2000/svg" viewBox="0 0 132.48 132.48"><defs><style>.cls-1,.cls-2{fill:none;stroke:#f29926;stroke-miterlimit:10;}.cls-1{stroke-width:4px;}.cls-2{stroke-width:2px;}</style></defs><g id="Laag_2" data-name="Laag 2"><g id="Layer_32" data-name="Layer 32"><circle class="cls-1" cx="66.24" cy="66.24" r="64.24"/><path class="cls-1" d="M74.81,40.42c6.88-1.07,13.85.68,20.25,3.11,1.78.68,3.78,1.74,4,3.62a5.94,5.94,0,0,1-.86,3.3c-2.25,4.7-4,9.8-3.77,15,0,.76.2,1.65.89,2a2.07,2.07,0,0,0,1.28,0,9,9,0,0,0,4.85-2.77c1.18-1.29,2.22-3.07,4-3.2,3.17-.22,4.56,5.2,7.73,4.9a3.31,3.31,0,0,0,2.6-2.39,8.74,8.74,0,0,0,.12-3.71,51.74,51.74,0,0,0-12.36-28.17,42,42,0,0,0-27.11-14,10.33,10.33,0,0,1-3.55-.69c-2.24-1.06-3.28-3.76-5.4-5s-5.22-.81-7.47.53-4,3.37-5.94,5.14c-4.84,4.43-10.9,7.35-15.83,11.68A45.75,45.75,0,0,0,26.93,45.89a39.73,39.73,0,0,0-3.72,16c0,5.51,1.79,11.13,5.34,15.05,1.92,1.39,4.69,1,6.71-.22a18.09,18.09,0,0,0,4.83-5.17c3-4.23,3.29-6,6.31-10.19,4.06-5.69,8.3-11.54,14.28-15.16"/><path class="cls-1" d="M72.19,56.61a22.88,22.88,0,0,0-2.4-.8,7.85,7.85,0,0,0-1.87-.23,5.33,5.33,0,0,0-3.85,1.79,2.67,2.67,0,0,0-.74,1.6,2.92,2.92,0,0,0,1.49,2.33,7.32,7.32,0,0,0,2.54,1.07,24.78,24.78,0,0,1,2.57.49,4.49,4.49,0,0,1,0,8.53,6.57,6.57,0,0,1-4.56-.46,5.51,5.51,0,0,1-2-1.31c-.54-.6-.25-.32-1-1.47"/><circle class="cls-1" cx="112.16" cy="75.54" r="1.38"/><ellipse class="cls-1" cx="31.55" cy="63.66" rx="1.13" ry="0.06"/><ellipse class="cls-1" cx="88.8" cy="82.05" rx="1.13" ry="0.06"/><path class="cls-1" d="M100.75,75.55a7,7,0,0,0-4.18-1.4,40.87,40.87,0,0,0-8-.24,15.76,15.76,0,0,0-7.49,2.51,5.67,5.67,0,0,0-2.73,4c-.13,1.76,1,3.38,2.39,4.53s3,2,4.21,3.25c2,2,3,5,5.24,6.9a6.8,6.8,0,0,0,8.24.45,9.81,9.81,0,0,0,1.89-2.07,16.27,16.27,0,0,0,3.33-8.07,23.08,23.08,0,0,0-1-7.4,5.33,5.33,0,0,0-.69-1.83C101.62,75.62,101,75.21,100.75,75.55Z"/><path class="cls-1" d="M69.69,83.68c2.28-.51,4.5,1,6.27,2.5,3.89,3.37,7.28,7.55,8.72,12.49a11,11,0,0,1,0,7.09,6,6,0,0,1-5.53,3.9.91.91,0,0,1-.4-.1.9.9,0,0,1-.33-.53c-.69-2.24-.12-4.64-.18-7a17.17,17.17,0,0,0-2.75-8.44,50.2,50.2,0,0,0-5.54-7.06,3.56,3.56,0,0,1-1.06-1.89C68.81,83.94,69.45,83.12,69.69,83.68Z"/><path class="cls-1" d="M67.69,94.1a28.91,28.91,0,0,0-4.41-8c-.4-.51-1-1.07-1.61-.87a1.51,1.51,0,0,0-.82,1c-1.06,3,.06,6.24.24,9.39a15.92,15.92,0,0,1-.82,6c-1.21,3.57-3.7,6.69-4.32,10.41-.13.78-.05,1.79.68,2.1a1.86,1.86,0,0,0,1.51-.22,17,17,0,0,0,7-6.5,24.93,24.93,0,0,0,3.24-9.06C68.68,96.63,68.75,94.58,67.69,94.1Z"/><path class="cls-1" d="M45.8,98.12a74,74,0,0,0-6.46,8.39c-.37.56-.73,1.35-.29,1.86s1.15.33,1.73.12a21.32,21.32,0,0,0,7.86-4.68A15.15,15.15,0,0,0,53,95.87a21.44,21.44,0,0,0,.26-4.16c0-1.71-.15-3.42-.34-5.13-.07-.64-.25-1.41-.87-1.61s-1.15.24-1.56.69a15.44,15.44,0,0,0-2.74,5.66A70,70,0,0,0,45.8,98.12Z"/><path class="cls-1" d="M37.32,99a6.31,6.31,0,0,0,3.36-3.41,13.52,13.52,0,0,0,1-4.8,33.36,33.36,0,0,0-.39-7.06,3.17,3.17,0,0,0-.92-2.07,2.35,2.35,0,0,0-1.49-.43,4,4,0,0,0-3.52,2.32,7.56,7.56,0,0,0-.45,3.11,8,8,0,0,1-.44,3.11A2.68,2.68,0,0,1,32,91.55a5.59,5.59,0,0,1-1.91-.67,7.14,7.14,0,0,0-3.65-.56,4.16,4.16,0,0,0-1.82.59,3.48,3.48,0,0,0-1.24,3.78,5.44,5.44,0,0,0,2.65,3.16,13.41,13.41,0,0,0,4,1.35A13.86,13.86,0,0,0,37.32,99Z"/><path class="cls-2" d="M49.61,12.67c-9.66,2.25-18,8.47-24.48,16C12.39,43.52,6.48,64.43,11.18,83.42"/><path class="cls-2" d="M68.09,51.33a14.58,14.58,0,0,0-5.84,1A10.89,10.89,0,0,0,57,56.24a11.71,11.71,0,0,0-1.85,5.23,17.28,17.28,0,0,0,1.47,9.4,9.4,9.4,0,0,0,5,5.18,13,13,0,0,0,2.55.54,17.34,17.34,0,0,0,3.37.26,29.37,29.37,0,0,0,4.8-.62A13.5,13.5,0,0,0,77,73.33c1.78-1.61,2.6-4,3.21-6.24.66-2.47,1.15-3.61.44-6.07s-.84-4.13-2.7-5.75c-1.18-1-3.73-3.39-5-3.56S69.19,51.35,68.09,51.33Z"/><path class="cls-2" d="M19.45,99.28c5,9.9,15.21,16.16,25.74,19.62C56,122.46,67.83,123.56,79,121.05a55.09,55.09,0,0,0,38.74-33.77A86.09,86.09,0,0,0,121,75.38"/><path class="cls-2" d="M72.36,8.61c18,3.16,34.78,14.36,43.58,30.44a57,57,0,0,1,7,26.13"/><circle class="cls-1" cx="19.85" cy="82.05" r="1.75"/><path class="cls-1" d="M54.12,40.6c-.2,7.89,14.47,6.86,22.34,6.3a2.43,2.43,0,0,0,1.2-.3,1.68,1.68,0,0,0,.58-1.74,4.36,4.36,0,0,0-.93-1.7,19.89,19.89,0,0,0-8.06-6.33C66.05,35.54,54.37,30.83,54.12,40.6Z"/><path class="cls-1" d="M39.91,28.6a53.89,53.89,0,0,1,40-10"/><path class="cls-1" d="M42.41,58.37A37,37,0,0,0,42.16,53a1.06,1.06,0,0,0-.16-.53,1,1,0,0,0-.42-.26,15.77,15.77,0,0,0-9.82,0"/></g></g></svg>