<svg xmlns="http://www.w3.org/2000/svg" xmlns:xlink="http://www.w3.org/1999/xlink" viewBox="0 0 620.81 860.76"><defs><style>.cls-1{fill:none;}.cls-2{fill:#0a7b7f;}.cls-3{fill:#5e8c58;}.cls-4{fill:#cab93a;}.cls-5{fill:#e6be29;}.cls-6{fill:#767676;}.cls-7{fill:#b4b4b3;}.cls-8{fill:#8a8a8a;}.cls-9{fill:#6d6d6c;}.cls-10{fill:#7e7e7f;}.cls-11{fill:url(#radial-gradient);}.cls-12{fill:url(#radial-gradient-2);}.cls-13{clip-path:url(#clip-path);}.cls-14{fill:url(#radial-gradient-3);}.cls-15{clip-path:url(#clip-path-2);}.cls-16{fill:url(#radial-gradient-4);}.cls-17{clip-path:url(#clip-path-3);}.cls-18{fill:url(#radial-gradient-5);}.cls-19{clip-path:url(#clip-path-4);}.cls-20{fill:url(#radial-gradient-6);}.cls-21{clip-path:url(#clip-path-5);}.cls-22{fill:url(#radial-gradient-7);}.cls-23{clip-path:url(#clip-path-6);}.cls-24{fill:url(#radial-gradient-8);}.cls-25{fill:#3a3f58;}.cls-26{fill:url(#radial-gradient-9);}.cls-27{fill:#b13a48;}.cls-28{fill:#aa6339;}.cls-29{fill:url(#linear-gradient);}.cls-30{fill:url(#linear-gradient-2);}</style><radialGradient id="radial-gradient" cx="374.66" cy="626.64" r="307.18" gradientTransform="translate(73.71 221.78) scale(0.52 0.35)" gradientUnits="userSpaceOnUse"><stop offset="0" stop-color="#fad085"/><stop offset="0.28" stop-color="#f8c676"/><stop offset="0.83" stop-color="#f4ab4f"/><stop offset="1" stop-color="#f3a241"/></radialGradient><radialGradient id="radial-gradient-2" cx="274.23" cy="201.5" r="307.18" gradientTransform="translate(0 98.34) scale(1 0.51)" xlink:href="#radial-gradient"/><clipPath id="clip-path"><rect class="cls-1" x="235.08" y="278.66" width="39.76" height="69.4"/></clipPath><radialGradient id="radial-gradient-3" cx="255.05" cy="313.32" r="25.31" gradientTransform="translate(0 -52.72) scale(1 1.17)" gradientUnits="userSpaceOnUse"><stop offset="0" stop-color="#ffce00"/><stop offset="1" stop-color="#f9b400"/></radialGradient><clipPath id="clip-path-2"><rect class="cls-1" x="274.84" y="278.66" width="39.76" height="69.4"/></clipPath><radialGradient id="radial-gradient-4" cx="255.05" cy="313.32" r="25.31" gradientTransform="matrix(-1, 0, 0, 1.17, 549.69, -52.72)" xlink:href="#radial-gradient-3"/><clipPath id="clip-path-3"><polygon class="cls-1" points="168.65 307.2 198.71 359.38 198.71 378.91 148.76 378.91 148.76 307.2 168.65 307.2"/></clipPath><radialGradient id="radial-gradient-5" cx="255.05" cy="313.32" r="25.31" gradientTransform="matrix(0.87, -0.5, 0.58, 1.01, -234.86, 157.32)" xlink:href="#radial-gradient-3"/><clipPath id="clip-path-4"><polygon class="cls-1" points="168.65 307.2 198.71 359.38 215.6 369.18 240.66 325.97 178.63 289.99 168.65 307.2"/></clipPath><radialGradient id="radial-gradient-6" cx="255.05" cy="313.32" r="25.31" gradientTransform="matrix(-0.87, 0.5, 0.58, 1.01, 241.45, -117.05)" xlink:href="#radial-gradient-3"/><clipPath id="clip-path-5"><polygon class="cls-1" points="379.8 307.18 348.22 360.01 321.88 360.01 321.88 305.71 379.8 305.71 379.8 307.18"/></clipPath><radialGradient id="radial-gradient-7" cx="255.05" cy="313.32" r="25.31" gradientTransform="matrix(0.86, 0.51, -0.6, 1, 313.78, -118.02)" xlink:href="#radial-gradient-3"/><clipPath id="clip-path-6"><polygon class="cls-1" points="379.8 307.18 348.22 360.01 360.69 383.21 408.52 357.5 381.1 306.48 379.8 307.18"/></clipPath><radialGradient id="radial-gradient-8" cx="255.05" cy="313.32" r="25.31" gradientTransform="matrix(-0.86, -0.51, -0.6, 1, 785.59, 164.02)" xlink:href="#radial-gradient-3"/><radialGradient id="radial-gradient-9" cx="278.82" cy="143.46" r="17.95" gradientUnits="userSpaceOnUse"><stop offset="0" stop-color="#e13643"/><stop offset="1" stop-color="#e13642"/></radialGradient><linearGradient id="linear-gradient" x1="392.96" y1="418.97" x2="425.69" y2="416.42" gradientUnits="userSpaceOnUse"><stop offset="0" stop-color="#b4b6bd"/><stop offset="1" stop-color="#91959a"/></linearGradient><linearGradient id="linear-gradient-2" x1="169.7" y1="428.36" x2="127.89" y2="423.13" gradientUnits="userSpaceOnUse"><stop offset="0" stop-color="#b4b6bd"/><stop offset="0.51" stop-color="#b2b4bb"/><stop offset="0.73" stop-color="#abadb4"/><stop offset="0.89" stop-color="#9ea2a7"/><stop offset="1" stop-color="#91959a"/></linearGradient></defs><g id="Laag_2" data-name="Laag 2"><g id="Layer_22" data-name="Layer 22"><path class="cls-2" d="M9.39,844.86c-3.25-2-.29-8.33,3.35-7.11-5.43-.06-9.94-4.72-11.62-9.89S0,817.11.55,811.71l9.84-95.44c1-10.06,2.07-20.18,1.19-30.25-1.38-15.89-7.51-31.61-5.06-47.36,29.27-20.58,65.66-29.37,99.29-22.67,45.19,9,82.62,43.67,128.28,49.94,35.33,4.86,70.39-7.95,104.2-19.32s70.41-21.54,104.64-11.53c16,4.67,30.39,13.5,44.93,21.64,32.52,18.22,66.72,33.44,99.6,46.63-6.49,51.92,11.2,107-7.84,155.75-.65,1.66-4,2.36-3.17.77"/><path class="cls-3" d="M560.72,819c-2.05-58.21-4.1-116.42-7.67-174-30.1-25.69-74.82-23.82-113.3-14.61S362.92,654.8,323.54,651c-11.81-1.13-23.52-4-35.38-3.59-25.69.84-48.13,16.43-71,28.18-55,28.25-118.81,35.79-180.4,30.71-2.63-.21-5.67-.3-7.45,1.65-1.49,1.63-1.51,4.09-1.44,6.3q1.36,42.81,2.71,85.62a9.17,9.17,0,0,0,1,4.62c1.31,2,4,2.68,6.35,3.13C189.47,836,345.29,824.24,499.21,833c11.4.65,23,1.4,34.11-1.13C542.59,829.79,551.33,825.41,560.72,819Z"/><path class="cls-4" d="M42.58,667.67c44-38,105.45-54.95,162.7-44.8,19.09,3.38,37.56,9.57,56.13,15.13,39.51,11.83,80.11,20.94,121.32,22.61s122.2,4.64,161.31-11.15c0,44.76-.18,134.84-.18,134.84l-499.7-7"/><path class="cls-5" d="M18.64,784.15a92.46,92.46,0,0,0-7.34-37.49c14.43-37.82,51.85-61.58,86.11-54.86,21,4.13,38.72,17.61,57.68,27.51a158.09,158.09,0,0,0,56.34,17.49c51.11,5.38,100.4-17.3,150.48-28.85,83.21-19.17,170-7.51,258.9,3.24L605.38,759c-1,3.12-2,6.33-1.8,9.6"/></g><g id="Layer_31" data-name="Layer 31"><polygon class="cls-6" points="134.01 158.01 138.03 119.77 191.37 63.25 228.78 61.41 235.82 81.36 253.26 102.67 240.01 160.2 134.01 158.01"/><polygon class="cls-7" points="188.95 62.87 136.96 119.66 133.49 154.26 156 166.01 184.98 155.25 190.11 144.16 200.71 129.42 198.22 90.35 197.23 64.36 188.95 62.87"/><polygon class="cls-8" points="180.84 163.86 184.31 145.48 191.76 136.71 197.72 119.49 199.18 105.45 217.52 134.56 225.79 145.89 242.64 148.78 241.1 156.25 205.84 180.42 180.84 163.86"/><polygon class="cls-9" points="346.01 158.59 335.04 124.61 330.47 116.54 339.15 88.96 341.44 77.99 360.64 59.1 370.69 62.91 406.35 92.31 408.48 97.04 412.44 99.78 416.25 119.74 419.9 137.56 415.79 149.6 408.02 161.03 346.01 158.59"/><polygon class="cls-8" points="345.99 161.79 342.35 146.6 351.34 128.41 365.46 117.61 364.18 110.65 367.06 107.34 402.05 151.31 400.45 161.79 345.99 161.79"/><polygon class="cls-7" points="359.9 57.91 361.93 98.99 364.71 110.22 380.97 129.8 395.42 151.74 407.72 159.44 415.79 149.6 420.77 137.19 412.32 99.63 407.83 96.64 406.87 92.68 370.7 62.4 359.9 57.91"/><polygon class="cls-10" points="357.39 74.32 363.92 69.8 368.61 50.72 355.89 23.44 280.9 1.18 182.98 40.01 174.11 60.77 177.46 65.79 264.66 95.92 334.46 79.18 357.39 74.32"/><polygon class="cls-10" points="265.19 95.79 275.81 52.67 277.22 49.07 313.7 37.96 339.22 38.9 355.5 22.77 368.33 51.26 364.11 70.52 357.38 73.96 265.19 95.79"/><polygon class="cls-7" points="183.44 39.52 280.6 0 355.69 23.15 351.56 28.61 340.85 39.78 316.08 40.6 276 51.5 188.69 46.19 183.44 39.52"/></g><g id="Ui_-_you_lost_copy" data-name="Ui - you lost copy"><rect class="cls-11" x="187.27" y="406.5" width="163.83" height="65" rx="16"/></g><g id="Ui_-_you_lost" data-name="Ui - you lost"><rect class="cls-12" x="117.23" y="153.5" width="314" height="96" rx="16"/></g><g id="Layer_10" data-name="Layer 10"><g class="cls-13"><path class="cls-14" d="M275,278.67a13.19,13.19,0,0,0-10.7,5.56c-2.23,3.29-3.18,7.27-3.77,11.2-5.76.91-11.6,1.85-16.91,4.24a17.31,17.31,0,0,0-6.3,4.42,9,9,0,0,0-2.15,7.2c.69,3.62,4,6.1,7.29,7.82a51.64,51.64,0,0,0,9.32,3.8,41.82,41.82,0,0,0-5.13,8.49,16.41,16.41,0,0,0-1.17,9.71,8,8,0,0,0,5.43,6.28,13.41,13.41,0,0,0,5.28.65c2.85-.09,4.56-.83,7.24-1.84a32.59,32.59,0,0,0,11.27-7.42h.11"/></g><g class="cls-15"><path class="cls-16" d="M274.66,278.67a13.22,13.22,0,0,1,10.7,5.56c2.23,3.29,3.18,7.27,3.76,11.2,5.76.91,11.6,1.85,16.92,4.24a17.27,17.27,0,0,1,6.29,4.42,8.9,8.9,0,0,1,2.15,7.2c-.68,3.62-4,6.1-7.28,7.82a52.24,52.24,0,0,1-9.32,3.8A42.23,42.23,0,0,1,303,331.4a16.49,16.49,0,0,1,1.18,9.71,8,8,0,0,1-5.44,6.28,13.38,13.38,0,0,1-5.27.65c-2.86-.09-4.57-.83-7.24-1.84A32.59,32.59,0,0,1,275,338.78h-.12"/></g><g class="cls-17"><path class="cls-18" d="M168.87,307.2a13.2,13.2,0,0,0-6.5,10.16c-.29,4,.88,7.89,2.33,11.58-4.54,3.67-9.13,7.4-12.54,12.13a17.15,17.15,0,0,0-3.25,7,8.91,8.91,0,0,0,1.73,7.3c2.4,2.8,6.53,3.28,10.22,3.15a52.23,52.23,0,0,0,10-1.36,42.14,42.14,0,0,0-.21,9.91,16.54,16.54,0,0,0,3.83,9,8,8,0,0,0,7.85,2.74,13.76,13.76,0,0,0,4.9-2.07c2.42-1.51,3.53-3,5.35-5.22a32.54,32.54,0,0,0,6.06-12.06l.1-.05"/></g><g class="cls-19"><path class="cls-20" d="M168.55,307.39a13.15,13.15,0,0,1,12-.52c3.58,1.73,6.39,4.71,8.85,7.82,5.45-2.08,11-4.19,16.78-4.77a17.38,17.38,0,0,1,7.66.69,9,9,0,0,1,5.46,5.16c1.21,3.49-.44,7.29-2.41,10.42a51.84,51.84,0,0,1-6.18,7.94,41.86,41.86,0,0,1,8.67,4.8,16.4,16.4,0,0,1,5.87,7.82,8,8,0,0,1-1.57,8.17,13.69,13.69,0,0,1-4.25,3.19c-2.52,1.34-4.37,1.56-7.19,2a31.78,31.78,0,0,1-6.26.33,30.81,30.81,0,0,1-7.21-1.14l-.1.06"/></g><g class="cls-21"><path class="cls-22" d="M379.8,307.54c-3.3-2.21-8.43-2.38-12-.71s-6.46,4.6-9,7.68c-5.42-2.18-10.91-4.37-16.7-5a17.26,17.26,0,0,0-7.67.56,8.94,8.94,0,0,0-5.54,5.07c-1.27,3.47.32,7.3,2.24,10.46a52.2,52.2,0,0,0,6.05,8,41.92,41.92,0,0,0-8.75,4.65,16.49,16.49,0,0,0-6,7.73,8,8,0,0,0,1.43,8.19,13.73,13.73,0,0,0,4.2,3.27c2.5,1.38,4.35,1.62,7.16,2.13A32.54,32.54,0,0,0,348.7,359l.1.06"/></g><g class="cls-23"><path class="cls-24" d="M379.48,307.35a13.17,13.17,0,0,1,6.33,10.27c.23,4-1,7.87-2.51,11.54,4.47,3.74,9,7.54,12.34,12.32a17.15,17.15,0,0,1,3.13,7,8.87,8.87,0,0,1-1.84,7.27c-2.45,2.76-6.58,3.17-10.27,3a52.14,52.14,0,0,1-10-1.52,41.6,41.6,0,0,1,.05,9.91,16.51,16.51,0,0,1-4,8.94,8,8,0,0,1-7.9,2.61,13.66,13.66,0,0,1-4.86-2.15c-2.4-1.55-3.49-3.06-5.27-5.3a32,32,0,0,1-3.34-5.3,31.28,31.28,0,0,1-2.52-6.85l-.1-.06"/></g></g><g id="Layer_3" data-name="Layer 3"><path class="cls-25" d="M273.84,157.64c-1.39,3.08-2.57,6.36-2.48,9.74,0,.67.16,1.45.76,1.74a1.34,1.34,0,0,0,1.41-.27,3.6,3.6,0,0,0,.85-1.25,39.58,39.58,0,0,0,3.27-10"/><path class="cls-26" d="M269.37,139.26c-3-.4-5-.17-8.3,3.11a5.08,5.08,0,0,0-1.24,2.57,6.73,6.73,0,0,0,.38,3.6c1.52,4.11,5.57,6.73,9.62,8.42a42.37,42.37,0,0,0,18.78,3.16c3.76-.23,8.21-1.59,9.15-5.24a6.44,6.44,0,0,0-2-6,13,13,0,0,0-5.9-3c0-1.37,0-2.73.06-4.25a11,11,0,0,0,4-.35,4.26,4.26,0,0,0,2.66-2.79c1.08-3.51-2-5.73-3.62-6.91-3.72-2.72-8-3.9-14.76-4.82a10.46,10.46,0,0,0-4.9.77c-1,.61-3.37,2-2.79,5a5.45,5.45,0,0,0,1.2,2,7.89,7.89,0,0,0,3.54,2.15c-.15,1-.88,2.37-1,3.35A36.49,36.49,0,0,0,269.37,139.26Z"/><path class="cls-27" d="M289.91,141.64a58.88,58.88,0,0,1-14.66-5,15.17,15.17,0,0,0-.63,1.87l-.11.5s-.37,1.07-.28,1.14c4.42,4.06,9.55,5.7,15.62,5.7C289.78,144.43,289.91,143,289.91,141.64Z"/></g><g id="Layer_26_copy" data-name="Layer 26 copy"><path class="cls-28" d="M426.48,465.55c-7.48-6.09-12.7-43.17-12.7-43.17l8.56-2.51S437.22,453.27,435,463C434.41,465.86,428.65,467.31,426.48,465.55Z"/><path class="cls-28" d="M414.17,414.06a6.42,6.42,0,0,0,5.68.62.84.84,0,0,0,.42-.26.8.8,0,0,0,.11-.4,6.94,6.94,0,0,0-.37-2.46c-.2-.72-.41-1.44-.64-2.16a3.4,3.4,0,0,0-.45-1,2.62,2.62,0,0,0-1.13-.81,3.78,3.78,0,0,0-3.69.24,2.83,2.83,0,0,0-1,1.43,5.36,5.36,0,0,0-.18,1.5,3.48,3.48,0,0,0,.46,2c.36.5.95.82,1.2,1.38C414.57,414.12,414.57,414.08,414.17,414.06Z"/><path class="cls-28" d="M132.32,470.3c-3.47-9,10.44-43.78,10.44-43.78l8.67,2.07S147.74,465,141,472.37C139,474.5,133.32,472.9,132.32,470.3Z"/><path class="cls-28" d="M146.14,418.53c1.9.51,3.83.93,5.77,1.26a1.54,1.54,0,0,0,.74,0,1.32,1.32,0,0,0,.73-.8,3.89,3.89,0,0,0-.19-3.38,2.28,2.28,0,0,0-.49-.62,3.08,3.08,0,0,0-1.84-.5,8.84,8.84,0,0,0-2.12.06,3,3,0,0,0-1.81,1A5.91,5.91,0,0,0,146.14,418.53Z"/></g><g id="Layer_28" data-name="Layer 28"><path class="cls-29" d="M416.32,411.13c-4.59-3.57-8.95-8.29-15-9.16a7.23,7.23,0,0,0-3.14.12c-2.64.82-4,3.75-4.56,6.44a36.3,36.3,0,0,0,.46,16.09,18.43,18.43,0,0,0,2.61,6.49,8.19,8.19,0,0,0,5.78,3.63c3.62.31,6.7-2.45,9.29-5l4.54-4.5c2.42-2.41,5.28-5,8.7-4.82,1.39.07,3,.53,4-.48a3.19,3.19,0,0,0,.63-2.27,8.07,8.07,0,0,0-1.91-5.45,4.41,4.41,0,0,0-5.37-.91,9.63,9.63,0,0,1-2.09,1.49C418.62,413.3,417,411.65,416.32,411.13Z"/><path class="cls-30" d="M126.48,426.8c4,2.63,38,10.31,38.13,10.31,2.2,0,4.42-2.61,5.19-4.95a10.39,10.39,0,0,0,.47-5.24,9.13,9.13,0,0,0-1.69-3.31,8.74,8.74,0,0,0-3.67-2.51s-19.94-6.78-26.07-5.37C134.32,416.77,125.84,426.38,126.48,426.8Z"/></g></g></svg>