<svg xmlns="http://www.w3.org/2000/svg" xmlns:xlink="http://www.w3.org/1999/xlink" viewBox="0 0 620.81 875.78"><defs><style>.cls-1{fill:#656a6b;}.cls-2{fill:#888c91;}.cls-3{fill:#0a7b7f;}.cls-4{fill:#5e8c58;}.cls-5{fill:#cab93a;}.cls-6{fill:#e6be29;}.cls-7,.cls-8,.cls-9{fill:#eea528;}.cls-7,.cls-8{stroke:#e5862e;stroke-miterlimit:10;}.cls-7{stroke-width:4px;}.cls-8{stroke-width:8px;}.cls-10{fill:#efa51d;}.cls-11{fill:#484c4b;}.cls-12{fill:#636869;}.cls-13{fill:#91959a;}.cls-14{fill:#505555;}.cls-15{fill:#787c7f;}.cls-16{fill:#414645;}.cls-17{fill:url(#radial-gradient);}.cls-18{fill:url(#radial-gradient-2);}.cls-19{fill:#3a3f58;}.cls-20{fill:url(#radial-gradient-3);}.cls-21{fill:#b13a48;}</style><radialGradient id="radial-gradient" cx="374.66" cy="641.66" r="307.18" gradientTransform="translate(73.71 231.59) scale(0.52 0.35)" gradientUnits="userSpaceOnUse"><stop offset="0" stop-color="#fad085"/><stop offset="0.28" stop-color="#f8c676"/><stop offset="0.83" stop-color="#f4ab4f"/><stop offset="1" stop-color="#f3a241"/></radialGradient><radialGradient id="radial-gradient-2" cx="274.23" cy="216.52" r="307.18" gradientTransform="translate(0 105.67) scale(1 0.51)" xlink:href="#radial-gradient"/><radialGradient id="radial-gradient-3" cx="278.82" cy="158.48" r="17.95" gradientUnits="userSpaceOnUse"><stop offset="0" stop-color="#e13643"/><stop offset="1" stop-color="#e13642"/></radialGradient></defs><g id="Laag_2" data-name="Laag 2"><g id="Layer_24" data-name="Layer 24"><polyline class="cls-1" points="457.72 702.63 429.81 572 403.01 554.97 345.51 572.84 277.13 696.49"/><polygon class="cls-2" points="257.87 656.01 276.01 626.71 324.3 611.63 370.08 625.03 385.71 649.87 392.41 690.35 256.48 688.95 257.87 656.01"/></g><g id="Layer_22" data-name="Layer 22"><path class="cls-3" d="M9.39,859.88c-3.25-2-.29-8.33,3.35-7.11-5.43-.06-9.94-4.72-11.62-9.89S0,832.13.55,826.73l9.84-95.44c1-10.06,2.07-20.18,1.19-30.25-1.38-15.89-7.51-31.61-5.06-47.36C35.79,633.1,72.18,624.31,105.81,631,151,640,188.43,674.68,234.09,681c35.33,4.86,70.39-8,104.2-19.32s70.41-21.54,104.64-11.53c16,4.68,30.39,13.5,44.93,21.64,32.52,18.22,66.72,33.44,99.6,46.63-6.49,51.92,11.2,107-7.84,155.75-.65,1.66-4,2.36-3.17.77"/><path class="cls-4" d="M560.72,834c-2.05-58.21-4.1-116.42-7.67-174-30.1-25.69-74.82-23.82-113.3-14.61S362.92,669.82,323.54,666c-11.81-1.13-23.52-4-35.38-3.59-25.69.84-48.13,16.43-71,28.18-55,28.25-118.81,35.79-180.4,30.72-2.63-.22-5.67-.31-7.45,1.64-1.49,1.63-1.51,4.09-1.44,6.3q1.36,42.81,2.71,85.63a9.15,9.15,0,0,0,1,4.61c1.31,2.05,4,2.68,6.35,3.13C189.47,851,345.29,839.26,499.21,848c11.4.65,23,1.4,34.11-1.13C542.59,844.81,551.33,840.43,560.72,834Z"/><path class="cls-5" d="M42.58,682.69c44-38,105.45-55,162.7-44.8,19.09,3.39,37.56,9.57,56.13,15.13,39.51,11.83,80.11,21,121.32,22.61s122.2,4.65,161.31-11.15c0,44.77-.18,134.84-.18,134.84l-499.7-7"/><path class="cls-6" d="M18.64,799.17a92.46,92.46,0,0,0-7.34-37.49c14.43-37.82,51.85-61.58,86.11-54.86,21,4.13,38.72,17.61,57.68,27.51a158.11,158.11,0,0,0,56.34,17.5c51.11,5.37,100.4-17.31,150.48-28.85,83.21-19.18,170-7.52,258.9,3.23L605.38,774c-1,3.12-2,6.33-1.8,9.61"/></g><g id="Layer_20_copy" data-name="Layer 20 copy"><line class="cls-7" x1="51.95" y1="37.02" x2="83.83" y2="5.13"/><line class="cls-7" x1="51.95" y1="37.02" x2="28.83" y2="7.16"/><line class="cls-7" x1="110.99" y1="36.4" x2="83.83" y2="5.13"/><line class="cls-7" x1="110.99" y1="36.4" x2="143.76" y2="5.13"/><line class="cls-7" x1="169.27" y1="36.4" x2="143.76" y2="5.13"/><line class="cls-7" x1="169.27" y1="36.4" x2="196.52" y2="7.16"/><line class="cls-7" x1="222.44" y1="36.4" x2="196.52" y2="7.16"/><line class="cls-7" x1="222.44" y1="36.4" x2="249.68" y2="7.16"/><line class="cls-7" x1="274.51" y1="36.4" x2="249.68" y2="7.16"/><line class="cls-7" x1="274.51" y1="36.4" x2="297.92" y2="5.13"/><line class="cls-7" x1="321.44" y1="36.4" x2="297.92" y2="5.13"/><line class="cls-7" x1="321.44" y1="36.4" x2="342.81" y2="3.66"/><line class="cls-7" x1="365.32" y1="36.4" x2="342.81" y2="3.66"/><line class="cls-7" x1="365.25" y1="36.5" x2="381.79" y2="10.88"/><line class="cls-8" x1="88.83" y1="201.12" x2="153.76" y2="243.44"/><line class="cls-8" x1="87.33" y1="201.12" x2="146.42" y2="160.97"/><line class="cls-8" x1="88.83" y1="284.08" x2="153.76" y2="248.44"/><line class="cls-8" x1="88.83" y1="284.58" x2="148.76" y2="320.68"/><line class="cls-8" x1="86.14" y1="358.8" x2="148.76" y2="320.73"/><line class="cls-8" x1="86.14" y1="359.3" x2="146.42" y2="395.6"/><line class="cls-8" x1="88.83" y1="436.58" x2="148.76" y2="397.1"/><line class="cls-8" x1="88.83" y1="437.58" x2="146.42" y2="473.36"/><line class="cls-8" x1="88.83" y1="591.9" x2="146.42" y2="548.36"/><line class="cls-8" x1="88.83" y1="592.9" x2="150.66" y2="632.97"/><line class="cls-8" x1="86.64" y1="676.23" x2="150.66" y2="632.97"/><line class="cls-8" x1="87.14" y1="676.73" x2="148.76" y2="711.71"/><line class="cls-8" x1="86.64" y1="754.2" x2="148.76" y2="714.87"/><line class="cls-8" x1="86.92" y1="755.58" x2="135.63" y2="787.09"/><line class="cls-8" x1="148.76" y1="547.39" x2="88.83" y2="511.56"/><line class="cls-8" x1="148.76" y1="471.98" x2="88.83" y2="511.56"/><g id="Layer_20" data-name="Layer 20"><rect class="cls-9" x="83.83" y="160.91" width="10" height="612.07"/></g><rect class="cls-10" x="143.76" y="160.91" width="10" height="612.07"/><rect class="cls-10" x="83.83" y="153.57" width="69.92" height="10"/><polygon class="cls-10" points="91.08 131.05 144.66 131.05 153.76 114.5 153.76 37.02 90.88 37.43 91.08 131.05"/><rect class="cls-10" x="42.99" y="32.9" width="379" height="7"/><rect class="cls-10" x="39.99" y="0.16" width="331" height="7"/><rect class="cls-10" x="363.85" y="15.78" width="60.56" height="8" transform="matrix(0.84, 0.54, -0.54, 0.84, 73.69, -210.54)"/><rect class="cls-10" x="66.33" y="3.66" width="6.64" height="32.74"/><rect class="cls-10" x="66.33" y="3.66" width="6.64" height="32.74"/><rect class="cls-10" x="179.57" y="2.16" width="6.64" height="32.74"/><rect class="cls-10" x="286.59" y="4.71" width="6.64" height="32.74"/><rect class="cls-10" x="390.81" y="18.53" width="6.64" height="16.37"/><rect class="cls-11" x="347.13" y="75.12" width="3" height="126"/><polygon class="cls-12" points="332.5 38.27 332.39 69.3 337.34 76.18 359.57 76.13 365.27 69.67 365.32 37.97 332.5 38.27"/><rect class="cls-13" x="96.44" y="47.67" width="14.55" height="76.25"/><rect class="cls-14" x="105.11" y="135" width="25" height="21.3"/><rect class="cls-15" x="121.12" y="137.29" width="6.75" height="17.25" rx="1"/><rect class="cls-15" x="107.62" y="137.29" width="6.75" height="17.25" rx="1"/><polygon class="cls-13" points="118.59 47.67 118.8 123.92 142.66 123.92 148.52 113.35 149.18 47.67 118.59 47.67"/><path class="cls-16" d="M74.48,135.8c-1.42-.27-1.5-5.5-1.5-5.5h88.5s-.59,5.49-2,5.75A240.41,240.41,0,0,1,74.48,135.8Z"/><rect class="cls-16" x="72.98" y="116.8" width="2" height="14.25"/><rect class="cls-16" x="159.48" y="116.8" width="2" height="14.25"/><rect class="cls-16" x="132.73" y="116.8" width="3" height="14.25"/><rect class="cls-16" x="100.73" y="116.8" width="3" height="14.25"/><rect class="cls-16" x="72.98" y="116.8" width="88.5" height="1.4"/></g><g id="Ui_-_you_lost_copy" data-name="Ui - you lost copy"><rect class="cls-17" x="187.27" y="421.52" width="163.83" height="65" rx="16"/></g><g id="Ui_-_you_lost" data-name="Ui - you lost"><rect class="cls-18" x="117.23" y="168.52" width="314" height="96" rx="16"/></g><g id="Layer_3" data-name="Layer 3"><path class="cls-19" d="M273.84,172.66c-1.39,3.08-2.57,6.36-2.48,9.74,0,.67.16,1.45.76,1.74a1.32,1.32,0,0,0,1.41-.27,3.6,3.6,0,0,0,.85-1.25,39.58,39.58,0,0,0,3.27-10"/><path class="cls-20" d="M269.37,154.28c-3-.4-5-.17-8.3,3.11a5.08,5.08,0,0,0-1.24,2.57,6.73,6.73,0,0,0,.38,3.6c1.52,4.11,5.57,6.74,9.62,8.42a42.37,42.37,0,0,0,18.78,3.16c3.76-.23,8.21-1.59,9.15-5.24a6.44,6.44,0,0,0-2-6,13,13,0,0,0-5.9-3c0-1.37,0-2.73.06-4.25a11.24,11.24,0,0,0,4-.34,4.29,4.29,0,0,0,2.66-2.8c1.08-3.51-2-5.73-3.62-6.91-3.72-2.72-8-3.9-14.76-4.82a10.46,10.46,0,0,0-4.9.77c-1,.61-3.37,2-2.79,5a5.45,5.45,0,0,0,1.2,2,8,8,0,0,0,3.54,2.16c-.15,1-.88,2.36-1,3.34A36.49,36.49,0,0,0,269.37,154.28Z"/><path class="cls-21" d="M289.91,156.66a59.25,59.25,0,0,1-14.66-4.95,14.66,14.66,0,0,0-.63,1.86l-.11.5s-.37,1.07-.28,1.15c4.42,4.05,9.55,5.69,15.62,5.69C289.78,159.45,289.91,158.06,289.91,156.66Z"/></g></g></svg>