<svg xmlns="http://www.w3.org/2000/svg" xmlns:xlink="http://www.w3.org/1999/xlink" viewBox="0 0 314 465.04"><defs><style>.cls-1{fill:url(#radial-gradient);}.cls-2{fill:url(#radial-gradient-2);}.cls-3{fill:#3a3f58;}.cls-4{fill:url(#radial-gradient-3);}.cls-5{fill:#b13a48;}.cls-6{fill:#7cbad6;}.cls-7{fill:#a4d8e0;}.cls-8{fill:#656a6b;}</style><radialGradient id="radial-gradient" cx="257.43" cy="620.19" r="307.18" gradientTransform="translate(17.64 217.56) scale(0.52 0.35)" gradientUnits="userSpaceOnUse"><stop offset="0" stop-color="#fad085"/><stop offset="0.28" stop-color="#f8c676"/><stop offset="0.83" stop-color="#f4ab4f"/><stop offset="1" stop-color="#f3a241"/></radialGradient><radialGradient id="radial-gradient-2" cx="157" cy="195.04" r="307.18" gradientTransform="translate(0 95.19) scale(1 0.51)" xlink:href="#radial-gradient"/><radialGradient id="radial-gradient-3" cx="161.6" cy="137.01" r="17.95" gradientUnits="userSpaceOnUse"><stop offset="0" stop-color="#e13643"/><stop offset="1" stop-color="#e13642"/></radialGradient></defs><g id="Laag_2" data-name="Laag 2"><g id="Ui_-_you_lost_copy" data-name="Ui - you lost copy"><rect class="cls-1" x="70.04" y="400.04" width="163.83" height="65" rx="16"/></g><g id="Ui_-_you_lost" data-name="Ui - you lost"><rect class="cls-2" y="147.04" width="314" height="96" rx="16"/></g><g id="Layer_3" data-name="Layer 3"><path class="cls-3" d="M156.61,151.18a22.6,22.6,0,0,0-2.47,9.74c0,.67.16,1.45.76,1.74a1.33,1.33,0,0,0,1.41-.27,3.62,3.62,0,0,0,.84-1.25,39.66,39.66,0,0,0,3.28-9.95"/><path class="cls-4" d="M152.15,132.8c-3-.39-5-.17-8.31,3.11a5.07,5.07,0,0,0-1.23,2.57,6.63,6.63,0,0,0,.38,3.6c1.52,4.11,5.56,6.74,9.61,8.42a42.39,42.39,0,0,0,18.79,3.16c3.76-.23,8.2-1.59,9.15-5.24a6.48,6.48,0,0,0-2-6,13.08,13.08,0,0,0-5.9-2.95c0-1.36,0-2.73.05-4.24a11.53,11.53,0,0,0,4-.35,4.24,4.24,0,0,0,2.65-2.79c1.08-3.52-2-5.74-3.62-6.91-3.72-2.73-8-3.91-14.76-4.82a10.45,10.45,0,0,0-4.9.76c-1,.61-3.37,2-2.79,5a5.5,5.5,0,0,0,1.2,2,7.89,7.89,0,0,0,3.55,2.16c-.15,1-.88,2.36-1,3.35A34.1,34.1,0,0,0,152.15,132.8Z"/><path class="cls-5" d="M172.68,135.19a59.63,59.63,0,0,1-14.65-5,15.23,15.23,0,0,0-.63,1.86l-.12.5s-.37,1.07-.28,1.15c4.42,4.06,9.56,5.69,15.63,5.69C172.55,138,172.68,136.58,172.68,135.19Z"/></g><g id="Layer_13" data-name="Layer 13"><path class="cls-6" d="M70.16,63.78C83.67,79,103.22,87.5,123,92.16c21.4,5,44.36,6,65-1.62s38.76-23.07,44.27-44.36c1.1-4.24,2.34-9.33.65-12.21-.83-1.41-4.28-.7-6.63-.57a44.86,44.86,0,0,0-1-30.71A4.25,4.25,0,0,0,223.47.22c-1.93-.9-3.86,1.15-5,2.93a108.92,108.92,0,0,1-34.6,33.29c-25.07,15.17-52.49,20.75-81.57,18.07-8.18-.75-16.37-2.82-23.22-6.92,3.28-4.47,6.18-9.34,7.53-14.72s1-11.35-1.89-16.09a6.44,6.44,0,0,0-1.74-2A6.39,6.39,0,0,0,79,13.84c-6.11.22-11.65,4.42-14.49,9.84s-3.26,11.86-2.27,17.9c.33,2,.56,4.57-1.21,5.55-1.11.62-2.47.26-3.7,0a11.36,11.36,0,0,0-5.87-.16A5.29,5.29,0,0,0,47.59,51a6.59,6.59,0,0,0,.74,3.55,17.23,17.23,0,0,0,9.4,8.85A19.77,19.77,0,0,0,70.16,63.78Z"/></g><g id="Layer_14" data-name="Layer 14"><path class="cls-7" d="M100.8,84.71a9,9,0,0,0,.79,6.38,4.32,4.32,0,0,0,1.5,1.72,5.08,5.08,0,0,0,3.36.4,19,19,0,0,0,7.48-2.79,1.06,1.06,0,0,0,.37-.36c.17-.34-.09-.73-.34-1A14.19,14.19,0,0,0,100.8,84.71Z"/><path class="cls-7" d="M174.28,44.22c2.1-3.64-2.94-8.34-5.13-10.16s-6.29-4.84-10.34-6a7.26,7.26,0,0,0-3.55-.23c-2.23.5-4.86,2.22-4.86,4.5,0,5.24-.52,7.7-1.48,13.51-.14.85-.58,4.61,0,5.28a4.68,4.68,0,0,0,2.89,2.05,27.45,27.45,0,0,0,6.07-.18C162.76,52.41,172.16,47.88,174.28,44.22Z"/><path class="cls-7" d="M187.51,122.82l-.85-1.78"/><path class="cls-7" d="M156.54,72.94A27.06,27.06,0,0,0,152.6,78a8.09,8.09,0,0,0,.09,9,7.13,7.13,0,0,0,3.86,3.22,8.11,8.11,0,0,0,3,.13,11.72,11.72,0,0,0,5.49-1.74A11.19,11.19,0,0,0,168,85.45a17.17,17.17,0,0,0,2.8-7.33,11.41,11.41,0,0,0-1.67-7.57c-.76-1.16-2-2.22-3.37-2-1.62.23-2.51,2-4,2.78C160.05,72.19,157.65,71.73,156.54,72.94Z"/><line class="cls-7" x1="170.98" y1="48.08" x2="171.12" y2="47.97"/></g><g id="Layer_16" data-name="Layer 16"><path class="cls-7" d="M247.45,56l-.94.88"/><path class="cls-7" d="M190.91,45.22c0,5.53-.8,12.44.78,18.41a6.61,6.61,0,0,0,1.44,3c1.06,1.09,3.43,1.4,5,1.53a30,30,0,0,0,7.09-.18c1.39-.2,3-.64,3.54-1.92-2.67-.41-5.39.29-8.1.34s-5.77-.84-7-3.28A8.82,8.82,0,0,1,193,60q-.45-5.35-.51-10.74C192.48,47.78,190.91,43.55,190.91,45.22Z"/></g><g id="Layer_15" data-name="Layer 15"><path class="cls-8" d="M207.19,33.63a2.37,2.37,0,0,0-3.18.77c-.42,1,.25,2.8,1,3.66a2.79,2.79,0,0,0,2,1.19,1.72,1.72,0,0,0,1.8-1.19,4.57,4.57,0,0,0,.11-2A3.41,3.41,0,0,0,207.19,33.63Z"/></g></g></svg>