<svg xmlns="http://www.w3.org/2000/svg" viewBox="0 0 638.22 638.23"><defs><style>.cls-1,.cls-2{fill:#fff;stroke:#fff;stroke-miterlimit:10;}.cls-1{stroke-width:25px;}.cls-2{stroke-width:30px;}</style></defs><title>Middel 8</title><g id="Laag_2" data-name="Laag 2"><g id="Laag_1-2" data-name="Laag 1"><path class="cls-1" d="M221.43,12.5V74.61H75.29a.68.68,0,0,0-.68.68V221.43H12.5V58.78A46.41,46.41,0,0,1,58.78,12.5Z"/><path class="cls-1" d="M221.43,563.62v62.11H43.28A30.88,30.88,0,0,1,12.5,595V416.79H74.61V562.94a.68.68,0,0,0,.68.68Z"/><path class="cls-1" d="M563.61,416.79h62.11V594.94a30.88,30.88,0,0,1-30.78,30.79H416.79V563.62H562.94a.68.68,0,0,0,.67-.68Z"/><path class="cls-1" d="M625.72,58.77V221.43H563.61V75.29a.67.67,0,0,0-.67-.68H416.79V12.5H579.45A46.4,46.4,0,0,1,625.72,58.77Z"/><polygon class="cls-2" points="163.98 370.6 194.99 370.6 194.99 443.91 268.3 443.91 268.3 474.92 163.98 474.92 163.98 474.91 163.98 370.6"/><polygon class="cls-2" points="439.15 370.6 470.16 370.6 470.16 474.92 365.84 474.92 365.84 443.91 439.15 443.91 439.15 370.6"/><polygon class="cls-2" points="365.84 199.75 365.84 168.74 470.16 168.74 470.16 273.06 439.15 273.06 439.15 199.75 365.84 199.75"/><polygon class="cls-2" points="163.98 168.74 268.3 168.74 268.3 199.75 194.99 199.75 194.99 273.06 163.98 273.06 163.98 168.74"/></g></g></svg>