<svg xmlns="http://www.w3.org/2000/svg" xmlns:xlink="http://www.w3.org/1999/xlink" viewBox="0 0 539.64 1331.08"><defs><style>.cls-1{fill:url(#Naamloos_verloop_12);}.cls-2{fill:url(#Naamloos_verloop_12-2);}.cls-3{fill:url(#Naamloos_verloop_12-3);}.cls-4{fill:url(#Naamloos_verloop_12-4);}.cls-5{fill:url(#Naamloos_verloop_12-5);}.cls-6{fill:url(#Naamloos_verloop_21);}.cls-7{fill:url(#Naamloos_verloop_12-6);}.cls-8{fill:url(#Naamloos_verloop_12-7);}.cls-9{fill:url(#Naamloos_verloop_21-2);}.cls-10{fill:#744b00;}.cls-11{fill:#c5ce5f;}.cls-12{fill:#90933c;}.cls-13{fill:#937300;}.cls-14{fill:url(#Naamloos_verloop_29);}.cls-15{fill:#ffd992;}</style><linearGradient id="Naamloos_verloop_12" x1="280.5" y1="431.93" x2="280.5" y2="1540.86" gradientUnits="userSpaceOnUse"><stop offset="0" stop-color="#64bf93"/><stop offset="1" stop-color="#356d86"/></linearGradient><linearGradient id="Naamloos_verloop_12-2" x1="344.6" y1="546.12" x2="334.39" y2="1110.78" xlink:href="#Naamloos_verloop_12"/><linearGradient id="Naamloos_verloop_12-3" x1="275.47" y1="284.62" x2="256.76" y2="1017.65" xlink:href="#Naamloos_verloop_12"/><linearGradient id="Naamloos_verloop_12-4" x1="78.81" y1="277.22" x2="66.91" y2="1042.58" xlink:href="#Naamloos_verloop_12"/><linearGradient id="Naamloos_verloop_12-5" x1="180.93" y1="311.94" x2="157.12" y2="1078.99" xlink:href="#Naamloos_verloop_12"/><linearGradient id="Naamloos_verloop_21" x1="191.46" y1="143.63" x2="196.3" y2="1043.91" gradientUnits="userSpaceOnUse"><stop offset="0" stop-color="#307556"/><stop offset="1" stop-color="#37545c"/></linearGradient><linearGradient id="Naamloos_verloop_12-6" x1="409.51" y1="506.72" x2="411.21" y2="1022.06" xlink:href="#Naamloos_verloop_12"/><linearGradient id="Naamloos_verloop_12-7" x1="502.4" y1="462.43" x2="505.8" y2="1095.12" xlink:href="#Naamloos_verloop_12"/><linearGradient id="Naamloos_verloop_21-2" x1="375.16" y1="188.89" x2="379.79" y2="1050.28" xlink:href="#Naamloos_verloop_21"/><linearGradient id="Naamloos_verloop_29" x1="276.85" y1="1146.2" x2="265.52" y2="1465.94" gradientUnits="userSpaceOnUse"><stop offset="0" stop-color="#c5ce5f"/><stop offset="1" stop-color="#90933c"/></linearGradient></defs><g id="Laag_2" data-name="Laag 2"><g id="Laag_1-2" data-name="Laag 1"><path class="cls-1" d="M28.78,369C29,375.87,26,1246.66,26,1246.66l509-10.79V309.47L28.78,369"/><path class="cls-2" d="M315,642.87s16,521.41,0,599.2h44.87s-18.52-546.27-4.69-590.74Z"/><path class="cls-3" d="M231,370.7s11.18,618.58,9.09,871.37c0,0,51.91,14.48,52.91,9.64s-.41-262.64-14.2-381.24c0,0-14.81-448.79,1.7-518.69Z"/><path class="cls-4" d="M51.09,436.87s26.11,106.2,17,346.62l-17,458.64,37.8,4.53S104,461.81,74,436.87Z"/><path class="cls-5" d="M146.89,416.62s26.89,374.69,0,571.47l-17.6,264.61H177s44.47-705,2.73-848.42Z"/><path class="cls-6" d="M174.35,400s18.15,728.12-12,852.66h70.18S214.76,501.31,226.77,400Z"/><polygon class="cls-7" points="372 646.66 379.16 1235.87 449.88 1235.3 425 617.66 372 646.66"/><path class="cls-8" d="M484.16,642.66s16,521.41,0,599.21H529s-18.51-546.28-4.69-590.74Z"/><path class="cls-9" d="M358.79,434.22s17.36,696.67-11.5,815.84h67.15s-17-718.95-5.5-815.89Z"/><path class="cls-10" d="M441,616.87s15,34,64-90h14.17v17.31S471.64,627.7,453,668.87Z"/><path class="cls-10" d="M140.45,851.6S192,804.1,260.5,767l6.5,9.88S150.83,862.36,135.41,895.11Z"/><path class="cls-10" d="M106.92,700.67S56,668.87,13,623.87l-5,11s62.4,61.48,99.2,114.24Z"/><path class="cls-11" d="M17.64,25s271.1-116.64,329.11,154.1c0,0,95.19-53.8,131.89,77.9,8.18,29.37-7.92,49.1-31.46,68.48-19.72,16.23-49.88,30.35-94.56,28.59,0,0-67.95-3-188.06,70.32,0,0-70.41,33-156.92,12.61Z"/><path class="cls-12" d="M0,366.87s52-17,138-106c0,0,78-58,168-7,0,0,114.17-128.42,174.09,23.29,0,0,10.11,83.94-183,84.82,0,0-199.1,132.89-284.1,72.89Z"/><path class="cls-10" d="M201.21,404.28S219,366.87,177,309.87l14-10.6s28.71,21.61,27.87,74.6Z"/><path class="cls-10" d="M132.3,548.34S129,497.87,171,447.87c0,0,42-55,56-92,0,0,13-42,53-67l13,9s-36,32-57,92c0,0-14,41-46,73,0,0-39,72-47,150Z"/><path class="cls-10" d="M135.41,1238s-48.58-83.67,0-342.92c0,0,19.59-130.24,7.59-282.24,0,0-26.36-133.5-29.18-276.75l.18-51.25-47,42s1,101,28,216c0,0,16,95,11.45,245.66,0,0-41.45,245.34-40.45,416.13l-15.11,37.41,84.52-4"/><path class="cls-11" d="M539.64,307S389,327,441,394c0,0-239-70.29-174,104.31,0,0-137,54.61-76,156.61,0,0,36,47,135,0,0,0,77.81,60.12,209.64,26.12Z"/><path class="cls-12" d="M538.72,561.08S429,515.87,385,476.87c0,0-68-61.37-92-32.19,0,0-27,18.76-4,70,0,0-61,12.22-81,50.22,0,0-50,56-17,90,0,0,34,49,135,0,0,0,83.09,65.91,209.64,26.12Z"/><path class="cls-10" d="M415,498.87s-11,68,9,227c0,0,10,213,6,288,0,0-3.21,143.22-8.1,168.11,0,0-7.11,34.3,0,60.09h59.86S464,1150.87,462,941.87l-7-205-3-87s-9.46-65.33,0-130Z"/><path class="cls-10" d="M335,588.87l-9,15s10,40,38,70c0,0,49.86,70.14,62.43,109.57l-2.26-53.88s-30.35-44.77-44-60.88a20.12,20.12,0,0,0-6.86-5.19C366.87,660.49,350.57,647.25,335,588.87Z"/><path class="cls-13" d="M141.73,606.13,131,778.87l-16.33,91.6s26.22-19.13,25.78-18.87S156.46,706.4,141.73,606.13Z"/><path class="cls-13" d="M146.89,845.9S197,801.1,260.5,767l-93.58,74.78Z"/><path class="cls-13" d="M426.43,783.44l14.57,23s12.26,104.43-11.37,222.43C429.63,1028.87,430,869.87,426.43,783.44Z"/><polygon class="cls-13" points="42.48 651.96 92.69 709.73 106.92 700.67 42.48 651.96"/><polygon class="cls-14" points="32 1235.56 83 1238.87 290.7 1235.56 515.21 1230.71 515.21 1331.08 28.78 1331.08 28.78 1235.56 32 1235.56"/><path class="cls-15" d="M90.62,1284.13a2,2,0,0,1,.1-3.89l47.28-6.37,33-5,49-3H383.68l24.32-3s64-9,27,17l-14,7s15.24,16-20.88,0c0,0-3.12,8-46.12,2,0,0,46,13-5,8,0,0-123,4-148-8,0,0,38,19-40,3l-77,17s23-17,37-19Z"/><path class="cls-15" d="M166.89,1300.89,136.41,1306a1.18,1.18,0,0,0,.08,2.34c4.88.38,13.83-.19,29.85-4.27a1.2,1.2,0,0,1,1.14.3l5.17,5.18a1.22,1.22,0,0,0,.84.35h15a1.18,1.18,0,0,0,.7-2.14,37.79,37.79,0,0,0-22.07-6.86A.82.82,0,0,0,166.89,1300.89Z"/><path class="cls-15" d="M229.87,1314c-4.61-1.72-16-4.82-26.78,1.15a1.73,1.73,0,0,0,.68,3.23c7.37.66,21.21,1.46,26.31-1.23A1.73,1.73,0,0,0,229.87,1314Z"/><path class="cls-15" d="M396,1297.88a34.28,34.28,0,0,1,13.3-2.41,1.63,1.63,0,0,1,.67,3.11c-2.81,1.29-7.22,2.44-13.58,1.9A1.35,1.35,0,0,1,396,1297.88Z"/></g></g></svg>