<svg xmlns="http://www.w3.org/2000/svg" viewBox="0 0 113.77 145"><defs><style>.cls-1{fill:#666;}.cls-2{fill:#4d4d4d;}.cls-3{fill:#fbb03b;}.cls-4{fill:#f7931e;}</style></defs><g id="Laag_2" data-name="Laag 2"><g id="Hook"><polygon class="cls-1" points="53.5 65 0 104.5 10 135 13.5 135 17 109.5 52.84 75.29 53.5 65"/><polygon class="cls-1" points="61.5 65 113.77 104.5 104 135 100.58 135 97.16 109.5 62.15 75.29 61.5 65"/><polygon class="cls-2" points="8.5 107 10 135 13.5 135 17 109.5 52.84 75.29 52.5 73 8.5 107"/><polygon class="cls-2" points="105.49 107 104.03 135 100.64 135 97.25 109.5 62.5 75.29 62.5 74 105.49 107"/><rect class="cls-2" x="54.71" y="57.78" width="5.08" height="7.22"/><polygon class="cls-1" points="54.5 79 42.5 118 55.5 145 62.61 145 71.5 117 60.79 78.61 54.5 79"/><polygon class="cls-2" points="42.5 118 53.5 119 61.5 119 71.5 117 62.61 145 55.5 145 42.5 118"/><path class="cls-3" d="M57.5,64a8,8,0,1,0,8,8A8,8,0,0,0,57.5,64Zm0,11.29A3.29,3.29,0,1,1,60.79,72,3.29,3.29,0,0,1,57.5,75.29Z"/><rect class="cls-1" x="54.5" width="5" height="44"/><path class="cls-3" d="M48,57.78H65.5S67,42.43,56.75,41.72C56.75,41.72,47.5,41.56,48,57.78Z"/><path class="cls-4" d="M48,55.39S61.41,56,62,44c0,0,4.55,3.56,3.55,13.78H48Z"/></g></g></svg>