<svg xmlns="http://www.w3.org/2000/svg" xmlns:xlink="http://www.w3.org/1999/xlink" viewBox="0 0 100.08 111.09"><defs><style>.cls-1{fill:#999;}.cls-2{fill:url(#Naamloos_verloop_15);}.cls-3{fill:#ccc;}</style><linearGradient id="Naamloos_verloop_15" x1="35.82" y1="-26.14" x2="34.11" y2="111.63" gradientUnits="userSpaceOnUse"><stop offset="0" stop-color="#999"/><stop offset="1" stop-color="#666"/></linearGradient></defs><g id="Laag_2" data-name="Laag 2"><g id="Stones"><path id="base_stone_2" class="cls-1" d="M12,4.09s-11,32-12,101a19.11,19.11,0,0,0,14,6l67-2,19-4s2-21-14-86C86,19.09,51-6.91,12,4.09Z"/><path id="shading_stone_2" class="cls-2" d="M12,4.09s-11,39-12,101c0,0,4.14,5.41,10.57,5.7l57.7-1.32S74,3.09,12,4.09Z"/><path id="highlight_stone_2" class="cls-3" d="M13.56,3.65a1.31,1.31,0,0,0,.16,2.4c6.57,2.42,24.5,9.22,34.14,18.43,0,0,17.14,13.61,20.14,84.61,0,0,1.62,4.14,1-13-.56-15.71-3.44-52.65-2-56,0,0,2-5.93,5-9l.1-.09c.62-.54,7.12-6.19,13.37-10.81a1.31,1.31,0,0,0-.1-2.18C76.91,13,37.79-8.45,13.56,3.65Z"/></g></g></svg>