<svg xmlns="http://www.w3.org/2000/svg" xmlns:xlink="http://www.w3.org/1999/xlink" viewBox="0 0 101.4 103.86"><defs><style>.cls-1{fill:#999;}.cls-2{fill:url(#Naamloos_verloop_15);}.cls-3{fill:#ccc;}</style><linearGradient id="Naamloos_verloop_15" x1="66.86" y1="-33.1" x2="66.29" y2="84.83" gradientUnits="userSpaceOnUse"><stop offset="0" stop-color="#999"/><stop offset="1" stop-color="#666"/></linearGradient></defs><g id="Laag_2" data-name="Laag 2"><g id="Stones"><path id="base_stone_1" class="cls-1" d="M.16,88.93C2.62,75.33,10.4,40.06,13.3,27a11.19,11.19,0,0,1,5.54-7.37L51.55,1.73A14.17,14.17,0,0,1,61.76.42L82.83,5.69a10.12,10.12,0,0,1,7.23,6.89l6,11a16.84,16.84,0,0,1,1.81,5.29L101,47.79a28.58,28.58,0,0,1,.38,4.61v29a9.61,9.61,0,0,1-5.71,8.78L76.61,98.66a24,24,0,0,1-6.7,1.86l-24.11,3a42,42,0,0,1-8.82.17l-25.59-2.19a13.71,13.71,0,0,1-8.53-4h0A9.71,9.71,0,0,1,.16,88.93Z"/><path id="shading_stone_1" class="cls-2" d="M88.89,10l-25.49,16c-.54.32-4.56,2.56-5,3l-5.25,5.25A7.74,7.74,0,0,0,51.88,36L47.4,45.08c-.33.59-3.84,11.34-4,12L32.47,93.81a5.41,5.41,0,0,0-.12.55h0c-4,11.72,2.8,8.82,7.48,8.82h8.29a7.73,7.73,0,0,0,1-.06l21.65-2.77a7.58,7.58,0,0,0,1.87-.49l14.67-5.93,8.34-3.87a7.51,7.51,0,0,0,2.85-2.3L99.83,86a7.54,7.54,0,0,0,1.54-4.66L101,48.52a7,7,0,0,0-.15-1.44L96.26,24.65a7.21,7.21,0,0,0-.72-2L88.89,10"/><path id="highlight_stone_1" class="cls-3" d="M17.4,21.08s4,9,11,10c0,0,29,9,61-21,0,0-6.89-9.83-34.24-10a3.13,3.13,0,0,0-1.43.36L17.4,20.08Z"/></g></g></svg>