<svg xmlns="http://www.w3.org/2000/svg" xmlns:xlink="http://www.w3.org/1999/xlink" viewBox="0 0 262 96"><defs><style>.cls-1{fill:#b3b3b3;}.cls-2{fill:url(#Naamloos_verloop_15);}.cls-3{fill:#e6e6e6;}</style><linearGradient id="Naamloos_verloop_15" x1="127.25" y1="-21.19" x2="118.18" y2="85.39" gradientUnits="userSpaceOnUse"><stop offset="0" stop-color="#999"/><stop offset="1" stop-color="#666"/></linearGradient></defs><g id="Laag_2" data-name="Laag 2"><g id="Stones"><path class="cls-1" d="M2,31,0,70,12.4,81.91,238,96l18.46-12.71L262,45s-7-35-32-39L199,3S104-2,8,5Z"/><path class="cls-2" d="M8,5A971.37,971.37,0,0,0,121,17L226,42l12,54L12.4,81.91,0,70,2,32"/><path class="cls-3" d="M8,5l16,7,98,5L226,42l15.11-31.68S230,3,193,1L138,0,59,2Z"/></g></g></svg>