<svg xmlns="http://www.w3.org/2000/svg" xmlns:xlink="http://www.w3.org/1999/xlink" viewBox="0 0 905.61 11663"><defs><style>.cls-1{fill:url(#Naamloos_verloop_41);}.cls-2{fill:#fff;}.cls-3{fill:url(#Naamloos_verloop_55);}.cls-4{fill:url(#Naamloos_verloop_62);}.cls-5{fill:url(#Naamloos_verloop_62-2);}.cls-6{fill:url(#Naamloos_verloop_62-3);}.cls-7{fill:url(#Naamloos_verloop_62-4);}.cls-8{fill:url(#Naamloos_verloop_62-5);}.cls-9{fill:url(#Naamloos_verloop_62-6);}.cls-10{fill:url(#Naamloos_verloop_62-7);}.cls-11{fill:url(#Naamloos_verloop_62-8);}.cls-12{fill:url(#Naamloos_verloop_62-9);}.cls-13{fill:url(#Naamloos_verloop_62-10);}.cls-14{fill:url(#Naamloos_verloop_62-11);}.cls-15{fill:url(#Naamloos_verloop_62-12);}.cls-16{fill:url(#Naamloos_verloop_62-13);}.cls-17{fill:url(#Naamloos_verloop_62-14);}.cls-18{fill:url(#Naamloos_verloop_62-15);}.cls-19{fill:url(#Naamloos_verloop_62-16);}.cls-20{fill:url(#Naamloos_verloop_62-17);}.cls-21{fill:url(#Naamloos_verloop_62-18);}.cls-22{fill:url(#Naamloos_verloop_62-19);}.cls-23{fill:url(#Naamloos_verloop_62-20);}.cls-24{fill:url(#Naamloos_verloop_62-21);}.cls-25{fill:url(#Naamloos_verloop_62-22);}.cls-26{fill:url(#Naamloos_verloop_62-23);}.cls-27{fill:url(#Naamloos_verloop_62-24);}.cls-28{fill:url(#Naamloos_verloop_62-25);}.cls-29{fill:url(#Naamloos_verloop_62-26);}.cls-30{fill:url(#Naamloos_verloop_62-27);}.cls-31{fill:url(#Naamloos_verloop_62-28);}.cls-32{fill:url(#Naamloos_verloop_62-29);}.cls-33{fill:url(#Naamloos_verloop_62-30);}.cls-34{fill:url(#Naamloos_verloop_62-31);}.cls-35{fill:url(#Naamloos_verloop_62-32);}.cls-36{fill:url(#Naamloos_verloop_62-33);}.cls-37{fill:url(#Naamloos_verloop_62-34);}.cls-38{fill:url(#Naamloos_verloop_62-35);}.cls-39{fill:url(#Naamloos_verloop_62-36);}.cls-40{fill:url(#Naamloos_verloop_62-37);}.cls-41{fill:url(#Naamloos_verloop_62-38);}.cls-42{fill:url(#Naamloos_verloop_62-39);}.cls-43{fill:url(#Naamloos_verloop_62-40);}.cls-44{fill:url(#Naamloos_verloop_62-41);}.cls-45{fill:url(#Naamloos_verloop_62-42);}.cls-46{fill:url(#Naamloos_verloop_62-43);}.cls-47{fill:url(#Naamloos_verloop_62-44);}.cls-48{fill:url(#Naamloos_verloop_62-45);}.cls-49{fill:url(#Naamloos_verloop_62-46);}.cls-50{fill:url(#Naamloos_verloop_62-47);}.cls-51{fill:url(#Naamloos_verloop_62-48);}.cls-52{fill:url(#Naamloos_verloop_62-49);}.cls-53{fill:#f4e8dc;}.cls-54{fill:#c8bbb3;}.cls-55{opacity:0.19;}.cls-56{fill:url(#Naamloos_verloop_62-50);}.cls-57{fill:url(#Naamloos_verloop_62-51);}.cls-58{fill:url(#Naamloos_verloop_62-52);}.cls-59{fill:url(#Naamloos_verloop_62-53);}.cls-60{fill:url(#Naamloos_verloop_62-54);}.cls-61{fill:url(#Naamloos_verloop_62-55);}.cls-62{fill:url(#Naamloos_verloop_62-56);}.cls-63{fill:url(#Naamloos_verloop_62-57);}.cls-64{fill:url(#Naamloos_verloop_62-58);}.cls-65{fill:url(#Naamloos_verloop_62-59);}.cls-66{fill:url(#Naamloos_verloop_62-60);}.cls-67{fill:url(#Naamloos_verloop_62-61);}.cls-68{fill:url(#Naamloos_verloop_62-62);}.cls-69{fill:url(#Naamloos_verloop_62-63);}.cls-70{fill:url(#Naamloos_verloop_62-64);}.cls-71{fill:url(#Naamloos_verloop_62-65);}.cls-72{fill:url(#Naamloos_verloop_62-66);}.cls-73{fill:url(#Naamloos_verloop_62-67);}.cls-74{fill:url(#Naamloos_verloop_62-68);}.cls-75{fill:url(#Naamloos_verloop_62-69);}.cls-76{fill:url(#Naamloos_verloop_62-70);}.cls-77{fill:url(#Naamloos_verloop_62-71);}.cls-78{fill:url(#Naamloos_verloop_62-72);}</style><linearGradient id="Naamloos_verloop_41" x1="847.59" y1="2933.21" x2="140.91" y2="11236.7" gradientUnits="userSpaceOnUse"><stop offset="0" stop-color="#2e3152"/><stop offset="1" stop-color="#9dcbdb"/></linearGradient><linearGradient id="Naamloos_verloop_55" x1="314.5" y1="6426.29" x2="423.35" y2="-2785.18" gradientTransform="translate(713 5744) rotate(-180)" gradientUnits="userSpaceOnUse"><stop offset="0" stop-color="#556782"/><stop offset="1" stop-color="#2e3562"/></linearGradient><radialGradient id="Naamloos_verloop_62" cx="137.5" cy="3149.5" r="14.5" gradientUnits="userSpaceOnUse"><stop offset="0" stop-color="#fff"/><stop offset="1" stop-color="#2e3562" stop-opacity="0"/></radialGradient><radialGradient id="Naamloos_verloop_62-2" cx="225" cy="2938" r="12" xlink:href="#Naamloos_verloop_62"/><radialGradient id="Naamloos_verloop_62-3" cx="317" cy="3068" r="12" xlink:href="#Naamloos_verloop_62"/><radialGradient id="Naamloos_verloop_62-4" cx="514" cy="3281" r="12" xlink:href="#Naamloos_verloop_62"/><radialGradient id="Naamloos_verloop_62-5" cx="424" cy="3178" r="8" xlink:href="#Naamloos_verloop_62"/><radialGradient id="Naamloos_verloop_62-6" cx="204" cy="3326" r="12" xlink:href="#Naamloos_verloop_62"/><radialGradient id="Naamloos_verloop_62-7" cx="137" cy="3412" r="12" xlink:href="#Naamloos_verloop_62"/><radialGradient id="Naamloos_verloop_62-8" cx="320" cy="3104" r="6" xlink:href="#Naamloos_verloop_62"/><radialGradient id="Naamloos_verloop_62-9" cx="207" cy="2915" r="6" xlink:href="#Naamloos_verloop_62"/><radialGradient id="Naamloos_verloop_62-10" cx="355.32" cy="2798.68" r="7.32" xlink:href="#Naamloos_verloop_62"/><radialGradient id="Naamloos_verloop_62-11" cx="180.5" cy="2643.5" r="14.5" xlink:href="#Naamloos_verloop_62"/><radialGradient id="Naamloos_verloop_62-12" cx="300.44" cy="2548.56" r="9.44" xlink:href="#Naamloos_verloop_62"/><radialGradient id="Naamloos_verloop_62-13" cx="264.5" cy="2557.5" r="14.5" xlink:href="#Naamloos_verloop_62"/><radialGradient id="Naamloos_verloop_62-14" cx="482.5" cy="2690.5" r="14.5" xlink:href="#Naamloos_verloop_62"/><radialGradient id="Naamloos_verloop_62-15" cx="568.5" cy="2580.5" r="14.5" xlink:href="#Naamloos_verloop_62"/><radialGradient id="Naamloos_verloop_62-16" cx="492.94" cy="2557.06" r="10.94" xlink:href="#Naamloos_verloop_62"/><radialGradient id="Naamloos_verloop_62-17" cx="459.5" cy="2417.5" r="14.5" xlink:href="#Naamloos_verloop_62"/><radialGradient id="Naamloos_verloop_62-18" cx="487.32" cy="2381.68" r="9.32" xlink:href="#Naamloos_verloop_62"/><radialGradient id="Naamloos_verloop_62-19" cx="319.5" cy="2233.5" r="14.5" xlink:href="#Naamloos_verloop_62"/><radialGradient id="Naamloos_verloop_62-20" cx="307.32" cy="2270.68" r="12.32" xlink:href="#Naamloos_verloop_62"/><radialGradient id="Naamloos_verloop_62-21" cx="162.94" cy="2341.06" r="11.94" xlink:href="#Naamloos_verloop_62"/><radialGradient id="Naamloos_verloop_62-22" cx="455.5" cy="2036.5" r="14.5" xlink:href="#Naamloos_verloop_62"/><radialGradient id="Naamloos_verloop_62-23" cx="356.5" cy="1883.5" r="14.5" xlink:href="#Naamloos_verloop_62"/><radialGradient id="Naamloos_verloop_62-24" cx="281.44" cy="1774.56" r="9.44" xlink:href="#Naamloos_verloop_62"/><radialGradient id="Naamloos_verloop_62-25" cx="407.5" cy="1823.5" r="14.5" xlink:href="#Naamloos_verloop_62"/><radialGradient id="Naamloos_verloop_62-26" cx="554.5" cy="1678.5" r="14.5" xlink:href="#Naamloos_verloop_62"/><radialGradient id="Naamloos_verloop_62-27" cx="194.5" cy="1479.5" r="14.5" xlink:href="#Naamloos_verloop_62"/><radialGradient id="Naamloos_verloop_62-28" cx="187.44" cy="1009.56" r="7.44" xlink:href="#Naamloos_verloop_62"/><radialGradient id="Naamloos_verloop_62-29" cx="512.94" cy="1193.06" r="11.94" xlink:href="#Naamloos_verloop_62"/><radialGradient id="Naamloos_verloop_62-30" cx="371.5" cy="1330.5" r="14.5" xlink:href="#Naamloos_verloop_62"/><radialGradient id="Naamloos_verloop_62-31" cx="519.32" cy="1472.68" r="7.32" xlink:href="#Naamloos_verloop_62"/><radialGradient id="Naamloos_verloop_62-32" cx="400.5" cy="906.5" r="14.5" xlink:href="#Naamloos_verloop_62"/><radialGradient id="Naamloos_verloop_62-33" cx="353.32" cy="865.68" r="7.32" xlink:href="#Naamloos_verloop_62"/><radialGradient id="Naamloos_verloop_62-34" cx="151.94" cy="713.06" r="11.94" xlink:href="#Naamloos_verloop_62"/><radialGradient id="Naamloos_verloop_62-35" cx="200.06" cy="666.06" r="16.06" xlink:href="#Naamloos_verloop_62"/><radialGradient id="Naamloos_verloop_62-36" cx="150.5" cy="404.5" r="14.5" xlink:href="#Naamloos_verloop_62"/><radialGradient id="Naamloos_verloop_62-37" cx="420.32" cy="451.32" r="10.32" xlink:href="#Naamloos_verloop_62"/><radialGradient id="Naamloos_verloop_62-38" cx="550.5" cy="301.5" r="14.5" xlink:href="#Naamloos_verloop_62"/><radialGradient id="Naamloos_verloop_62-39" cx="516.32" cy="273.68" r="9.32" xlink:href="#Naamloos_verloop_62"/><radialGradient id="Naamloos_verloop_62-40" cx="269.32" cy="133.68" r="9.32" xlink:href="#Naamloos_verloop_62"/><radialGradient id="Naamloos_verloop_62-41" cx="561.44" cy="1145.56" r="17.44" xlink:href="#Naamloos_verloop_62"/><radialGradient id="Naamloos_verloop_62-42" cx="145.32" cy="1535.8" r="9.32" xlink:href="#Naamloos_verloop_62"/><radialGradient id="Naamloos_verloop_62-43" cx="475.32" cy="2078.68" r="7.32" xlink:href="#Naamloos_verloop_62"/><radialGradient id="Naamloos_verloop_62-44" cx="597.5" cy="2160.5" r="14.5" xlink:href="#Naamloos_verloop_62"/><radialGradient id="Naamloos_verloop_62-45" cx="494" cy="2897" r="12" xlink:href="#Naamloos_verloop_62"/><radialGradient id="Naamloos_verloop_62-46" cx="458.5" cy="3483.5" r="12.5" xlink:href="#Naamloos_verloop_62"/><radialGradient id="Naamloos_verloop_62-47" cx="518.94" cy="2922.06" r="12.94" xlink:href="#Naamloos_verloop_62"/><radialGradient id="Naamloos_verloop_62-48" cx="563.51" cy="3118.68" r="9.13" xlink:href="#Naamloos_verloop_62"/><radialGradient id="Naamloos_verloop_62-49" cx="593.69" cy="3080.5" r="12.31" xlink:href="#Naamloos_verloop_62"/><radialGradient id="Naamloos_verloop_62-50" cx="370.5" cy="5305.5" r="14.5" xlink:href="#Naamloos_verloop_62"/><radialGradient id="Naamloos_verloop_62-51" cx="551.5" cy="5478.5" r="14.5" xlink:href="#Naamloos_verloop_62"/><radialGradient id="Naamloos_verloop_62-52" cx="192.5" cy="5531.5" r="14.5" xlink:href="#Naamloos_verloop_62"/><radialGradient id="Naamloos_verloop_62-53" cx="163.5" cy="5482.5" r="14.5" xlink:href="#Naamloos_verloop_62"/><radialGradient id="Naamloos_verloop_62-54" cx="188.5" cy="5142.5" r="14.5" xlink:href="#Naamloos_verloop_62"/><radialGradient id="Naamloos_verloop_62-55" cx="505.5" cy="5160.5" r="14.5" xlink:href="#Naamloos_verloop_62"/><radialGradient id="Naamloos_verloop_62-56" cx="440.5" cy="5006.5" r="14.5" xlink:href="#Naamloos_verloop_62"/><radialGradient id="Naamloos_verloop_62-57" cx="566.5" cy="4935.5" r="14.5" xlink:href="#Naamloos_verloop_62"/><radialGradient id="Naamloos_verloop_62-58" cx="534.5" cy="4964.5" r="14.5" xlink:href="#Naamloos_verloop_62"/><radialGradient id="Naamloos_verloop_62-59" cx="286.5" cy="4829.5" r="14.5" xlink:href="#Naamloos_verloop_62"/><radialGradient id="Naamloos_verloop_62-60" cx="221.5" cy="4742.5" r="14.5" xlink:href="#Naamloos_verloop_62"/><radialGradient id="Naamloos_verloop_62-61" cx="163.5" cy="4792.5" r="14.5" xlink:href="#Naamloos_verloop_62"/><radialGradient id="Naamloos_verloop_62-62" cx="491.5" cy="4548.5" r="14.5" xlink:href="#Naamloos_verloop_62"/><radialGradient id="Naamloos_verloop_62-63" cx="535.5" cy="4606.5" r="14.5" xlink:href="#Naamloos_verloop_62"/><radialGradient id="Naamloos_verloop_62-64" cx="355.5" cy="4354.5" r="14.5" xlink:href="#Naamloos_verloop_62"/><radialGradient id="Naamloos_verloop_62-65" cx="271.5" cy="4434.5" r="14.5" xlink:href="#Naamloos_verloop_62"/><radialGradient id="Naamloos_verloop_62-66" cx="520.5" cy="4144.5" r="14.5" xlink:href="#Naamloos_verloop_62"/><radialGradient id="Naamloos_verloop_62-67" cx="177.5" cy="4115.5" r="14.5" xlink:href="#Naamloos_verloop_62"/><radialGradient id="Naamloos_verloop_62-68" cx="129.5" cy="4050.5" r="14.5" xlink:href="#Naamloos_verloop_62"/><radialGradient id="Naamloos_verloop_62-69" cx="409.5" cy="3900.5" r="14.5" xlink:href="#Naamloos_verloop_62"/><radialGradient id="Naamloos_verloop_62-70" cx="337.5" cy="3809.5" r="14.5" xlink:href="#Naamloos_verloop_62"/><radialGradient id="Naamloos_verloop_62-71" cx="506.5" cy="3642.5" r="14.5" xlink:href="#Naamloos_verloop_62"/><radialGradient id="Naamloos_verloop_62-72" cx="218.5" cy="3575.5" r="14.5" xlink:href="#Naamloos_verloop_62"/></defs><g id="Laag_2" data-name="Laag 2"><g id="Laag_2-2" data-name="Laag 2"><rect class="cls-1" x="102" y="5744" width="509" height="5919"/><path class="cls-2" d="M95,10551H375.74c-7.58-30.76-46.33-56-85.74-34-18.82-33.9-89.37-44.68-116-11-43.5-38.9-99.22-3.94-106,45"/><path class="cls-2" d="M396,10862H676.74c-7.58-30.76-46.33-56-85.74-34-18.82-33.9-89.37-44.68-116-11-43.5-38.9-99.22-3.94-106,45"/><path class="cls-2" d="M519,10222H799.74c-7.58-30.76-46.33-56-85.74-34-18.82-33.9-89.37-44.68-116-11-43.5-38.9-99.22-3.94-106,45"/><path class="cls-2" d="M441,9887H721.74c-7.58-30.76-105.46-74.63-85.74-34-50-103-116.72-53.92-116-11-1-60-133-92-106,45"/><path class="cls-2" d="M223,10051.91c.11-9.33-1-18.62-1-27.94,3-46-65-137-116-11-43.5-38.9-99.22-3.94-106,45H222.72C222.87,10056,223,10054,223,10051.91Z"/><path class="cls-2" d="M395.1,9184.91c.11-9.33-1-18.62-1-27.94,3-46-65-137-116-11-43.49-38.9-99.22-3.94-106,45H394.8C395,9189,395.08,9187,395.1,9184.91Z"/><path class="cls-2" d="M409,8701H689.74c-7.58-30.76-46.33-56-85.74-34-18.82-33.9-89.37-44.68-116-11-43.5-38.9-99.22-3.94-106,45"/><path class="cls-2" d="M159,8203H439.74c-7.58-30.76-46.33-56.05-85.74-34-18.82-33.9-89.37-44.68-116-11-43.5-38.9-99.22-3.94-106,45"/><rect class="cls-3" x="102" width="509" height="5744" transform="translate(713 5744) rotate(180)"/><path class="cls-2" d="M299,5759H579.74c-7.58-30.76-46.33-56.05-85.74-34-18.82-33.9-89.37-44.68-116-11-43.5-38.9-99.22-3.94-106,45"/><path class="cls-2" d="M603.76,7663.91c.11-9.33-1-18.62-1-27.94,3-46-65-137-116-11-43.5-38.9-99.23-3.94-106,45H603.45C603.6,7668,603.73,7666,603.76,7663.91Z"/><path class="cls-2" d="M147,7496H427.74c-7.58-30.76-105.46-74.63-85.74-34-50-103-116.72-53.92-116-11-1-60-133-92-106,45"/><path class="cls-2" d="M365,6805H645.74c-7.58-30.76-46.33-56.05-85.74-34-18.82-33.9-89.37-44.68-116-11-43.5-38.9-99.22-3.94-106,45"/><path class="cls-2" d="M283.76,6253.91c.11-9.33-.95-18.62-1-27.94,3-46-65-137-116-11-43.5-38.9-99.23-3.94-106,45H283.45C283.6,6258,283.73,6256,283.76,6253.91Z"/><circle class="cls-4" cx="137.5" cy="3149.5" r="14.5"/><circle class="cls-2" cx="137.5" cy="3149.5" r="3.95"/><circle class="cls-5" cx="225" cy="2938" r="12"/><circle class="cls-2" cx="225" cy="2938" r="3.27"/><circle class="cls-6" cx="317" cy="3068" r="12"/><circle class="cls-2" cx="317" cy="3068" r="3.27"/><circle class="cls-7" cx="514" cy="3281" r="12"/><circle class="cls-2" cx="514" cy="3281" r="3.27"/><circle class="cls-8" cx="424" cy="3178" r="8"/><circle class="cls-2" cx="424" cy="3178" r="2.18"/><circle class="cls-9" cx="204" cy="3326" r="12"/><circle class="cls-2" cx="204" cy="3326" r="3.27"/><circle class="cls-10" cx="137" cy="3412" r="12"/><circle class="cls-2" cx="137" cy="3412" r="3.27"/><circle class="cls-11" cx="320" cy="3104" r="6"/><circle class="cls-2" cx="320" cy="3104" r="1.64"/><circle class="cls-12" cx="207" cy="2915" r="6"/><circle class="cls-2" cx="207" cy="2915" r="1.64"/><circle class="cls-13" cx="355.32" cy="2798.68" r="7.32"/><circle class="cls-2" cx="355.32" cy="2798.68" r="2"/><circle class="cls-14" cx="180.5" cy="2643.5" r="14.5"/><circle class="cls-2" cx="180.5" cy="2643.5" r="3.95"/><circle class="cls-15" cx="300.44" cy="2548.56" r="9.44"/><circle class="cls-2" cx="300.44" cy="2548.56" r="2.57"/><circle class="cls-16" cx="264.5" cy="2557.5" r="14.5"/><circle class="cls-2" cx="264.5" cy="2557.5" r="3.95"/><circle class="cls-17" cx="482.5" cy="2690.5" r="14.5"/><circle class="cls-2" cx="482.5" cy="2690.5" r="3.95"/><circle class="cls-18" cx="568.5" cy="2580.5" r="14.5"/><circle class="cls-2" cx="568.5" cy="2580.5" r="3.95"/><circle class="cls-19" cx="492.94" cy="2557.06" r="10.94"/><circle class="cls-2" cx="492.94" cy="2557.06" r="2.98"/><circle class="cls-20" cx="459.5" cy="2417.5" r="14.5"/><circle class="cls-2" cx="459.5" cy="2417.5" r="3.95"/><circle class="cls-21" cx="487.32" cy="2381.68" r="9.32"/><circle class="cls-2" cx="487.32" cy="2381.68" r="2.54"/><circle class="cls-22" cx="319.5" cy="2233.5" r="14.5"/><circle class="cls-2" cx="319.5" cy="2233.5" r="3.95"/><circle class="cls-23" cx="307.32" cy="2270.68" r="12.32"/><circle class="cls-2" cx="307.32" cy="2270.68" r="3.36"/><circle class="cls-24" cx="162.94" cy="2341.06" r="11.94"/><circle class="cls-2" cx="162.94" cy="2341.06" r="3.26"/><circle class="cls-25" cx="455.5" cy="2036.5" r="14.5"/><circle class="cls-2" cx="455.5" cy="2036.5" r="3.95"/><circle class="cls-26" cx="356.5" cy="1883.5" r="14.5"/><circle class="cls-2" cx="356.5" cy="1883.5" r="3.95"/><circle class="cls-27" cx="281.44" cy="1774.56" r="9.44"/><circle class="cls-2" cx="281.44" cy="1774.56" r="2.57"/><circle class="cls-28" cx="407.5" cy="1823.5" r="14.5"/><circle class="cls-2" cx="407.5" cy="1823.5" r="3.95"/><circle class="cls-29" cx="554.5" cy="1678.5" r="14.5"/><circle class="cls-2" cx="554.5" cy="1678.5" r="3.95"/><circle class="cls-30" cx="194.5" cy="1479.5" r="14.5"/><circle class="cls-2" cx="194.5" cy="1479.5" r="3.95"/><circle class="cls-31" cx="187.44" cy="1009.56" r="7.44"/><circle class="cls-2" cx="187.44" cy="1009.56" r="2.03"/><circle class="cls-32" cx="512.94" cy="1193.06" r="11.94"/><circle class="cls-2" cx="512.94" cy="1193.06" r="3.26"/><circle class="cls-33" cx="371.5" cy="1330.5" r="14.5"/><circle class="cls-2" cx="371.5" cy="1330.5" r="3.95"/><circle class="cls-34" cx="519.32" cy="1472.68" r="7.32"/><circle class="cls-2" cx="519.32" cy="1472.68" r="2"/><circle class="cls-35" cx="400.5" cy="906.5" r="14.5"/><circle class="cls-2" cx="400.5" cy="906.5" r="3.95"/><circle class="cls-36" cx="353.32" cy="865.68" r="7.32"/><circle class="cls-2" cx="353.32" cy="865.68" r="2"/><circle class="cls-37" cx="151.94" cy="713.06" r="11.94"/><circle class="cls-2" cx="151.94" cy="713.06" r="3.26"/><circle class="cls-38" cx="200.06" cy="666.06" r="16.06"/><circle class="cls-2" cx="200.06" cy="666.06" r="4.38"/><circle class="cls-39" cx="150.5" cy="404.5" r="14.5"/><circle class="cls-2" cx="150.5" cy="404.5" r="3.95"/><circle class="cls-40" cx="420.32" cy="451.32" r="10.32"/><circle class="cls-2" cx="420.32" cy="451.32" r="2.81"/><circle class="cls-41" cx="550.5" cy="301.5" r="14.5"/><circle class="cls-2" cx="550.5" cy="301.5" r="3.95"/><circle class="cls-42" cx="516.32" cy="273.68" r="9.32"/><circle class="cls-2" cx="516.32" cy="273.68" r="2.54"/><circle class="cls-43" cx="269.32" cy="133.68" r="9.32"/><circle class="cls-2" cx="269.32" cy="133.68" r="2.54"/><circle class="cls-44" cx="561.44" cy="1145.56" r="17.44"/><circle class="cls-2" cx="561.44" cy="1145.56" r="4.76"/><circle class="cls-45" cx="145.32" cy="1535.8" r="9.32"/><circle class="cls-2" cx="145.32" cy="1535.8" r="2.54"/><circle class="cls-46" cx="475.32" cy="2078.68" r="7.32"/><circle class="cls-2" cx="475.32" cy="2078.68" r="2"/><circle class="cls-47" cx="597.5" cy="2160.5" r="14.5"/><circle class="cls-2" cx="597.5" cy="2160.5" r="3.95"/><circle class="cls-48" cx="494" cy="2897" r="12"/><circle class="cls-2" cx="494" cy="2897" r="3.27"/><circle class="cls-49" cx="458.5" cy="3483.5" r="12.5"/><circle class="cls-2" cx="458.5" cy="3483.5" r="3.41"/><circle class="cls-50" cx="518.94" cy="2922.06" r="12.94"/><circle class="cls-2" cx="518.94" cy="2922.06" r="3.53"/><circle class="cls-51" cx="563.51" cy="3118.68" r="9.13"/><circle class="cls-2" cx="563.51" cy="3118.68" r="2.49"/><circle class="cls-52" cx="593.69" cy="3080.5" r="12.31"/><circle class="cls-2" cx="593.69" cy="3080.5" r="3.36"/><circle class="cls-53" cx="633.5" cy="670.5" r="256.5"/><circle class="cls-54" cx="550.5" cy="536.5" r="59.5"/><circle class="cls-54" cx="666.5" cy="573.5" r="20.5"/><circle class="cls-54" cx="601.5" cy="765.5" r="20.5"/><circle class="cls-54" cx="700.5" cy="741.5" r="59.5"/><path class="cls-54" d="M733.24,433.7s35.41,131.73-3.25,243a63.19,63.19,0,0,1,32.57,35.08,52.14,52.14,0,0,1,6,26.69c-.24,12.84-3,24.33-9.58,35.44a64.84,64.84,0,0,1-11,14.18L733.91,799l-.09.06a110.66,110.66,0,0,1-16.69,7l-.17.05h0l-9.22,1.24c-3.07.45-6.14.87-9.22,1.24h-.08a68.91,68.91,0,0,1-35-9.45l-14-10.83c-.61-.62-1.2-1.24-1.78-1.87-47.91,31.82-117.4,49-217.34,39.31C430.31,825.75,512,949,662,927c0,0,203-17.56,229-234.78C891,692.22,912.47,514.39,733.24,433.7Z"/><path class="cls-53" d="M408.49,547.28,395.67,536.5S402,501,441,481l10,14Z"/><path class="cls-53" d="M624.31,420l1.86-16.65s33.05-14.42,71.32,6.94l-6.1,16.09Z"/><path class="cls-53" d="M884.21,664.29l16.64,1.86s14.42,33.05-6.94,71.33l-16.08-6.11Z"/><path class="cls-54" d="M646.08,920.12,644,947.34s-52,21.93-114.3-15.15l8.9-26.08Z"/><g class="cls-55"><circle class="cls-56" cx="370.5" cy="5305.5" r="14.5"/><circle class="cls-2" cx="370.5" cy="5305.5" r="3.95"/><circle class="cls-57" cx="551.5" cy="5478.5" r="14.5"/><circle class="cls-2" cx="551.5" cy="5478.5" r="3.95"/><circle class="cls-58" cx="192.5" cy="5531.5" r="14.5"/><circle class="cls-2" cx="192.5" cy="5531.5" r="3.95"/><circle class="cls-59" cx="163.5" cy="5482.5" r="14.5"/><circle class="cls-2" cx="163.5" cy="5482.5" r="3.95"/><circle class="cls-60" cx="188.5" cy="5142.5" r="14.5"/><circle class="cls-2" cx="188.5" cy="5142.5" r="3.95"/><circle class="cls-61" cx="505.5" cy="5160.5" r="14.5"/><circle class="cls-2" cx="505.5" cy="5160.5" r="3.95"/><circle class="cls-62" cx="440.5" cy="5006.5" r="14.5"/><circle class="cls-2" cx="440.5" cy="5006.5" r="3.95"/><circle class="cls-63" cx="566.5" cy="4935.5" r="14.5"/><circle class="cls-2" cx="566.5" cy="4935.5" r="3.95"/><circle class="cls-64" cx="534.5" cy="4964.5" r="14.5"/><circle class="cls-2" cx="534.5" cy="4964.5" r="3.95"/><circle class="cls-65" cx="286.5" cy="4829.5" r="14.5"/><circle class="cls-2" cx="286.5" cy="4829.5" r="3.95"/><circle class="cls-66" cx="221.5" cy="4742.5" r="14.5"/><circle class="cls-2" cx="221.5" cy="4742.5" r="3.95"/><circle class="cls-67" cx="163.5" cy="4792.5" r="14.5"/><circle class="cls-2" cx="163.5" cy="4792.5" r="3.95"/><circle class="cls-68" cx="491.5" cy="4548.5" r="14.5"/><circle class="cls-2" cx="491.5" cy="4548.5" r="3.95"/><circle class="cls-69" cx="535.5" cy="4606.5" r="14.5"/><circle class="cls-2" cx="535.5" cy="4606.5" r="3.95"/><circle class="cls-70" cx="355.5" cy="4354.5" r="14.5"/><circle class="cls-2" cx="355.5" cy="4354.5" r="3.95"/><circle class="cls-71" cx="271.5" cy="4434.5" r="14.5"/><circle class="cls-2" cx="271.5" cy="4434.5" r="3.95"/><circle class="cls-72" cx="520.5" cy="4144.5" r="14.5"/><circle class="cls-2" cx="520.5" cy="4144.5" r="3.95"/><circle class="cls-73" cx="177.5" cy="4115.5" r="14.5"/><circle class="cls-2" cx="177.5" cy="4115.5" r="3.95"/><circle class="cls-74" cx="129.5" cy="4050.5" r="14.5"/><circle class="cls-2" cx="129.5" cy="4050.5" r="3.95"/><circle class="cls-75" cx="409.5" cy="3900.5" r="14.5"/><circle class="cls-2" cx="409.5" cy="3900.5" r="3.95"/><circle class="cls-76" cx="337.5" cy="3809.5" r="14.5"/><circle class="cls-2" cx="337.5" cy="3809.5" r="3.95"/><circle class="cls-77" cx="506.5" cy="3642.5" r="14.5"/><circle class="cls-2" cx="506.5" cy="3642.5" r="3.95"/><circle class="cls-78" cx="218.5" cy="3575.5" r="14.5"/><circle class="cls-2" cx="218.5" cy="3575.5" r="3.95"/></g></g></g></svg>