<svg xmlns="http://www.w3.org/2000/svg" xmlns:xlink="http://www.w3.org/1999/xlink" viewBox="0 0 1629.96 1273.38"><defs><style>.cls-1{fill:#8cc63f;}.cls-2{fill:url(#Naamloos_verloop_31);}.cls-3{fill:#fff;}</style><linearGradient id="Naamloos_verloop_31" x1="5048.5" y1="4453.27" x2="6015.18" y2="4453.27" gradientTransform="translate(-4716.86 -3837.72)" gradientUnits="userSpaceOnUse"><stop offset="0" stop-color="#8cc63f"/><stop offset="1"/></linearGradient></defs><title>Middel 2</title><g id="Laag_2" data-name="Laag 2"><g id="Laag_1-2" data-name="Laag 1"><path class="cls-1" d="M392.66,1256.85a33.47,33.47,0,0,1-57.74,0l-74.44-125.72-72.86-123c-13.41-22.65,2.74-51.42,28.87-51.42H511.1c26.12,0,42.28,28.77,28.87,51.42l-72.87,123Z"/><rect class="cls-2" x="331.64" y="-199.42" width="966.68" height="1629.96" rx="165.45" transform="translate(199.42 1430.53) rotate(-90)"/><rect class="cls-3" width="1629.96" height="975.82" rx="135"/><path class="cls-3" d="M385.75,1147.52a25.58,25.58,0,0,1-43.91,0l-56.61-94.65-55.41-92.65a25.58,25.58,0,0,1,22-38.71H475.82a25.58,25.58,0,0,1,21.95,38.71l-55.41,92.65Z"/></g></g></svg>