<svg xmlns="http://www.w3.org/2000/svg" viewBox="0 0 674.38 669.03"><defs><style>.cls-1,.cls-2{fill:#fff;stroke:#fff;stroke-miterlimit:10;}.cls-1{stroke-width:25px;}.cls-2{stroke-width:30px;}</style></defs><title>Middel 4</title><g id="Laag_2" data-name="Laag 2"><g id="Laag_1-2" data-name="Laag 1"><path class="cls-1" d="M233.75,12.5V77.73H79a.72.72,0,0,0-.72.72V231.93H12.5V61.1c0-26.73,22-48.6,49-48.6Z"/><path class="cls-1" d="M233.75,591.3v65.23H45.09A32.55,32.55,0,0,1,12.5,624.21V437.11H78.27V590.59a.71.71,0,0,0,.72.71Z"/><path class="cls-1" d="M596.11,437.11h65.77V624.2a32.56,32.56,0,0,1-32.59,32.33H440.63V591.3H595.39a.71.71,0,0,0,.72-.71Z"/><path class="cls-1" d="M661.88,61.1V231.93H596.11V78.44a.71.71,0,0,0-.71-.71H440.63V12.5H612.88C639.83,12.5,661.88,34.37,661.88,61.1Z"/><polygon class="cls-2" points="172.91 388.59 205.75 388.59 205.75 465.58 283.38 465.58 283.38 498.15 172.91 498.15 172.91 388.59"/><polygon class="cls-2" points="464.3 388.59 497.14 388.59 497.14 498.15 386.68 498.15 386.68 465.58 464.3 465.58 464.3 388.59"/><polygon class="cls-2" points="386.68 209.16 386.68 176.59 497.14 176.59 497.14 286.15 464.3 286.15 464.3 209.16 386.68 209.16"/><polygon class="cls-2" points="172.91 176.59 283.38 176.59 283.38 209.16 205.75 209.16 205.75 286.15 172.91 286.15 172.91 176.59"/></g></g></svg>